solid lymph_node_3
	facet normal -0.426095 -0.818532 -0.360585
		outer loop
			vertex 33.7555 -23.347 -438.391
			vertex 33.3232 -23.681 -437.106
			vertex 33.1048 -23.3306 -437.875
		endloop
	endfacet 
	facet normal -0.257582 -0.858444 -0.419254
		outer loop
			vertex 33.7555 -23.347 -438.391
			vertex 34.6351 -23.5421 -438.483
			vertex 34.101 -23.9827 -437.156
		endloop
	endfacet 
	facet normal -0.363987 -0.863196 -0.325832
		outer loop
			vertex 33.3232 -23.681 -437.106
			vertex 33.7555 -23.347 -438.391
			vertex 34.101 -23.9827 -437.156
		endloop
	endfacet 
	facet normal 0.0118804 -0.885549 -0.444087
		outer loop
			vertex 34.6351 -23.5421 -438.483
			vertex 35.463 -23.5921 -438.36
			vertex 34.9267 -24.0761 -437.388
		endloop
	endfacet 
	facet normal -0.149943 -0.899897 -0.379213
		outer loop
			vertex 34.101 -23.9827 -437.156
			vertex 34.6351 -23.5421 -438.483
			vertex 34.9267 -24.0761 -437.388
		endloop
	endfacet 
	facet normal 0.276796 -0.864952 -0.397272
		outer loop
			vertex 35.463 -23.5921 -438.36
			vertex 36.2257 -23.5368 -438.03
			vertex 35.7067 -24.0644 -437.03
		endloop
	endfacet 
	facet normal 0.146682 -0.904103 -0.368829
		outer loop
			vertex 34.9267 -24.0761 -437.388
			vertex 35.463 -23.5921 -438.36
			vertex 35.7067 -24.0644 -437.03
		endloop
	endfacet 
	facet normal 0.426826 -0.812828 -0.353625
		outer loop
			vertex 36.2257 -23.5368 -438.03
			vertex 36.8406 -23.4413 -437.562
			vertex 36.4602 -23.8392 -436.973
		endloop
	endfacet 
	facet normal 0.32632 -0.885852 -0.310108
		outer loop
			vertex 35.7067 -24.0644 -437.03
			vertex 36.2257 -23.5368 -438.03
			vertex 36.4602 -23.8392 -436.973
		endloop
	endfacet 
	facet normal 0.476035 -0.813031 -0.290002
		outer loop
			vertex 36.4602 -23.8392 -436.973
			vertex 36.8406 -23.4413 -437.562
			vertex 36.9222 -23.691 -436.924
		endloop
	endfacet 
	facet normal -0.820949 -0.331449 -0.449346
		outer loop
			vertex 33.1778 -22.8328 -438.53
			vertex 32.8381 -23.1195 -437.84
			vertex 32.6054 -22.7406 -437.563
		endloop
	endfacet 
	facet normal -0.656553 -0.570094 -0.451035
		outer loop
			vertex 33.1048 -23.3306 -437.875
			vertex 32.8381 -23.1195 -437.84
			vertex 33.1778 -22.8328 -438.53
		endloop
	endfacet 
	facet normal -0.502665 -0.684841 -0.482908
		outer loop
			vertex 33.1048 -23.3306 -437.875
			vertex 33.1778 -22.8328 -438.53
			vertex 33.7555 -23.347 -438.391
		endloop
	endfacet 
	facet normal -0.491137 -0.605273 -0.587526
		outer loop
			vertex 33.7555 -23.347 -438.391
			vertex 33.1778 -22.8328 -438.53
			vertex 33.8131 -22.7163 -439.259
		endloop
	endfacet 
	facet normal -0.203403 -0.782136 -0.564136
		outer loop
			vertex 34.6351 -23.5421 -438.483
			vertex 33.7555 -23.347 -438.391
			vertex 34.4461 -22.8765 -439.369
		endloop
	endfacet 
	facet normal -0.322822 -0.671599 -0.634564
		outer loop
			vertex 34.4461 -22.8765 -439.369
			vertex 33.7555 -23.347 -438.391
			vertex 33.8131 -22.7163 -439.259
		endloop
	endfacet 
	facet normal 0.0696258 -0.803765 -0.561318
		outer loop
			vertex 35.463 -23.5921 -438.36
			vertex 34.6351 -23.5421 -438.483
			vertex 35.2487 -22.9606 -439.293
		endloop
	endfacet 
	facet normal -0.038018 -0.741806 -0.641326
		outer loop
			vertex 35.2487 -22.9606 -439.293
			vertex 34.6351 -23.5421 -438.483
			vertex 34.4461 -22.8765 -439.369
		endloop
	endfacet 
	facet normal 0.327833 -0.764336 -0.524458
		outer loop
			vertex 36.2257 -23.5368 -438.03
			vertex 35.463 -23.5921 -438.36
			vertex 36.0397 -22.9707 -438.94
		endloop
	endfacet 
	facet normal 0.255464 -0.721705 -0.613247
		outer loop
			vertex 36.0397 -22.9707 -438.94
			vertex 35.463 -23.5921 -438.36
			vertex 35.2487 -22.9606 -439.293
		endloop
	endfacet 
	facet normal 0.546985 -0.669833 -0.462534
		outer loop
			vertex 36.8406 -23.4413 -437.562
			vertex 36.2257 -23.5368 -438.03
			vertex 36.7336 -22.945 -438.323
		endloop
	endfacet 
	facet normal 0.497517 -0.642241 -0.546203
		outer loop
			vertex 36.7336 -22.945 -438.323
			vertex 36.2257 -23.5368 -438.03
			vertex 36.0397 -22.9707 -438.94
		endloop
	endfacet 
	facet normal 0.658703 -0.671363 -0.294518
		outer loop
			vertex 37.2392 -23.3783 -436.739
			vertex 36.9222 -23.691 -436.924
			vertex 36.8406 -23.4413 -437.562
		endloop
	endfacet 
	facet normal 0.749546 -0.5484 -0.321183
		outer loop
			vertex 37.2392 -23.3783 -436.739
			vertex 36.8406 -23.4413 -437.562
			vertex 37.2558 -22.9251 -437.477
		endloop
	endfacet 
	facet normal 0.702609 -0.532567 -0.437094
		outer loop
			vertex 37.2558 -22.9251 -437.477
			vertex 36.8406 -23.4413 -437.562
			vertex 36.7336 -22.945 -438.323
		endloop
	endfacet 
	facet normal 0.848526 -0.455404 -0.24621
		outer loop
			vertex 37.2392 -23.3783 -436.739
			vertex 37.2558 -22.9251 -437.477
			vertex 37.5589 -22.8915 -436.53
		endloop
	endfacet 
	facet normal -0.814281 -0.251479 -0.484156
		outer loop
			vertex 32.9515 -22.0987 -438.489
			vertex 33.1778 -22.8328 -438.53
			vertex 32.6054 -22.7406 -437.563
		endloop
	endfacet 
	facet normal -0.895905 -0.101542 -0.406326
		outer loop
			vertex 32.4637 -21.9884 -437.458
			vertex 32.9515 -22.0987 -438.489
			vertex 32.6054 -22.7406 -437.563
		endloop
	endfacet 
	facet normal -0.612778 -0.352961 -0.670592
		outer loop
			vertex 33.8131 -22.7163 -439.259
			vertex 33.1778 -22.8328 -438.53
			vertex 33.5869 -22.1348 -439.307
		endloop
	endfacet 
	facet normal -0.739667 -0.195436 -0.609548
		outer loop
			vertex 33.5869 -22.1348 -439.307
			vertex 33.1778 -22.8328 -438.53
			vertex 32.9515 -22.0987 -438.489
		endloop
	endfacet 
	facet normal -0.292964 -0.5143 -0.777811
		outer loop
			vertex 34.4461 -22.8765 -439.369
			vertex 33.8131 -22.7163 -439.259
			vertex 34.3 -22.1704 -439.756
		endloop
	endfacet 
	facet normal -0.484328 -0.273451 -0.789912
		outer loop
			vertex 34.3 -22.1704 -439.756
			vertex 33.8131 -22.7163 -439.259
			vertex 33.5869 -22.1348 -439.307
		endloop
	endfacet 
	facet normal 0.0326851 -0.575043 -0.785656
		outer loop
			vertex 35.2487 -22.9606 -439.293
			vertex 34.4461 -22.8765 -439.369
			vertex 35.0698 -22.2346 -439.812
		endloop
	endfacet 
	facet normal -0.102841 -0.458074 -0.851713
		outer loop
			vertex 35.0698 -22.2346 -439.812
			vertex 34.4461 -22.8765 -439.369
			vertex 34.3 -22.1704 -439.756
		endloop
	endfacet 
	facet normal 0.366039 -0.529304 -0.725811
		outer loop
			vertex 36.0397 -22.9707 -438.94
			vertex 35.2487 -22.9606 -439.293
			vertex 35.8637 -22.2625 -439.51
		endloop
	endfacet 
	facet normal 0.269684 -0.44049 -0.817192
		outer loop
			vertex 35.8637 -22.2625 -439.51
			vertex 35.2487 -22.9606 -439.293
			vertex 35.0698 -22.2346 -439.812
		endloop
	endfacet 
	facet normal 0.620844 -0.432797 -0.613601
		outer loop
			vertex 36.7336 -22.945 -438.323
			vertex 36.0397 -22.9707 -438.94
			vertex 36.6091 -22.2634 -438.85
		endloop
	endfacet 
	facet normal 0.561736 -0.362492 -0.704421
		outer loop
			vertex 36.6091 -22.2634 -438.85
			vertex 36.0397 -22.9707 -438.94
			vertex 35.8637 -22.2625 -439.51
		endloop
	endfacet 
	facet normal 0.795894 -0.346244 -0.459539
		outer loop
			vertex 37.2558 -22.9251 -437.477
			vertex 36.7336 -22.945 -438.323
			vertex 37.2274 -22.2953 -437.924
		endloop
	endfacet 
	facet normal 0.763597 -0.274065 -0.552376
		outer loop
			vertex 37.2274 -22.2953 -437.924
			vertex 36.7336 -22.945 -438.323
			vertex 36.6091 -22.2634 -438.85
		endloop
	endfacet 
	facet normal 0.889552 -0.340911 -0.272649
		outer loop
			vertex 37.645 -22.3807 -436.864
			vertex 37.5589 -22.8915 -436.53
			vertex 37.2558 -22.9251 -437.477
		endloop
	endfacet 
	facet normal 0.883856 -0.247583 -0.370068
		outer loop
			vertex 37.2274 -22.2953 -437.924
			vertex 37.645 -22.3807 -436.864
			vertex 37.2558 -22.9251 -437.477
		endloop
	endfacet 
	facet normal -0.886055 0.0551087 -0.438283
		outer loop
			vertex 32.831 -21.3653 -438.159
			vertex 32.9515 -22.0987 -438.489
			vertex 32.4637 -21.9884 -437.458
		endloop
	endfacet 
	facet normal -0.916858 0.155968 -0.339014
		outer loop
			vertex 32.4328 -21.2656 -437
			vertex 32.831 -21.3653 -438.159
			vertex 32.4637 -21.9884 -437.458
		endloop
	endfacet 
	facet normal -0.742958 0.0376594 -0.637741
		outer loop
			vertex 33.5869 -22.1348 -439.307
			vertex 32.9515 -22.0987 -438.489
			vertex 33.4121 -21.4156 -439.028
		endloop
	endfacet 
	facet normal -0.807723 0.138267 -0.544306
		outer loop
			vertex 33.4121 -21.4156 -439.028
			vertex 32.9515 -22.0987 -438.489
			vertex 32.831 -21.3653 -438.159
		endloop
	endfacet 
	facet normal -0.48668 0.0664718 -0.837079
		outer loop
			vertex 34.3 -22.1704 -439.756
			vertex 33.5869 -22.1348 -439.307
			vertex 34.1236 -21.4434 -439.602
		endloop
	endfacet 
	facet normal -0.601967 0.164515 -0.745193
		outer loop
			vertex 34.1236 -21.4434 -439.602
			vertex 33.5869 -22.1348 -439.307
			vertex 33.4121 -21.4156 -439.028
		endloop
	endfacet 
	facet normal -0.0882716 -0.0702527 -0.955572
		outer loop
			vertex 35.0698 -22.2346 -439.812
			vertex 34.3 -22.1704 -439.756
			vertex 34.9031 -21.4783 -439.822
		endloop
	endfacet 
	facet normal -0.269429 0.196374 -0.910671
		outer loop
			vertex 34.9031 -21.4783 -439.822
			vertex 34.3 -22.1704 -439.756
			vertex 34.1236 -21.4434 -439.602
		endloop
	endfacet 
	facet normal 0.357986 -0.179106 -0.884894
		outer loop
			vertex 35.8637 -22.2625 -439.51
			vertex 35.0698 -22.2346 -439.812
			vertex 35.6838 -21.5187 -439.669
		endloop
	endfacet 
	facet normal 0.209885 0.0925411 -0.942016
		outer loop
			vertex 35.6838 -21.5187 -439.669
			vertex 35.0698 -22.2346 -439.812
			vertex 34.9031 -21.4783 -439.822
		endloop
	endfacet 
	facet normal 0.655475 -0.110231 -0.712046
		outer loop
			vertex 36.6091 -22.2634 -438.85
			vertex 35.8637 -22.2625 -439.51
			vertex 36.439 -21.5011 -439.059
		endloop
	endfacet 
	facet normal 0.559105 -0.00300316 -0.791222
		outer loop
			vertex 36.439 -21.5011 -439.059
			vertex 35.8637 -22.2625 -439.51
			vertex 35.6838 -21.5187 -439.669
		endloop
	endfacet 
	facet normal 0.825114 -0.0622487 -0.533266
		outer loop
			vertex 37.2274 -22.2953 -437.924
			vertex 36.6091 -22.2634 -438.85
			vertex 37.1432 -21.5031 -438.034
		endloop
	endfacet 
	facet normal 0.776101 0.0312811 -0.602115
		outer loop
			vertex 37.1432 -21.5031 -438.034
			vertex 36.6091 -22.2634 -438.85
			vertex 36.439 -21.5011 -439.059
		endloop
	endfacet 
	facet normal 0.918184 -0.0966142 -0.359715
		outer loop
			vertex 37.6693 -21.6654 -436.93
			vertex 37.645 -22.3807 -436.864
			vertex 37.2274 -22.2953 -437.924
		endloop
	endfacet 
	facet normal 0.891739 0.0165413 -0.430075
		outer loop
			vertex 37.1432 -21.5031 -438.034
			vertex 37.6693 -21.6654 -436.93
			vertex 37.2274 -22.2953 -437.924
		endloop
	endfacet 
	facet normal -0.878425 0.292064 -0.350224
		outer loop
			vertex 32.8044 -20.7426 -437.675
			vertex 32.831 -21.3653 -438.159
			vertex 32.4328 -21.2656 -437
		endloop
	endfacet 
	facet normal -0.888988 0.360327 -0.249773
		outer loop
			vertex 32.5882 -20.674 -436.881
			vertex 32.8044 -20.7426 -437.675
			vertex 32.4328 -21.2656 -437
		endloop
	endfacet 
	facet normal -0.740069 0.336824 -0.550174
		outer loop
			vertex 33.4121 -21.4156 -439.028
			vertex 32.831 -21.3653 -438.159
			vertex 33.2866 -20.7511 -438.447
		endloop
	endfacet 
	facet normal -0.779969 0.389761 -0.455362
		outer loop
			vertex 33.2866 -20.7511 -438.447
			vertex 32.831 -21.3653 -438.159
			vertex 32.8044 -20.7426 -437.675
		endloop
	endfacet 
	facet normal -0.514713 0.409854 -0.716363
		outer loop
			vertex 34.1236 -21.4434 -439.602
			vertex 33.4121 -21.4156 -439.028
			vertex 33.9517 -20.7418 -439.021
		endloop
	endfacet 
	facet normal -0.588051 0.481555 -0.61478
		outer loop
			vertex 33.9517 -20.7418 -439.021
			vertex 33.4121 -21.4156 -439.028
			vertex 33.2866 -20.7511 -438.447
		endloop
	endfacet 
	facet normal -0.204632 0.451412 -0.832804
		outer loop
			vertex 34.9031 -21.4783 -439.822
			vertex 34.1236 -21.4434 -439.602
			vertex 34.7273 -20.744 -439.325
		endloop
	endfacet 
	facet normal -0.319802 0.549719 -0.736869
		outer loop
			vertex 34.7273 -20.744 -439.325
			vertex 34.1236 -21.4434 -439.602
			vertex 33.9517 -20.7418 -439.021
		endloop
	endfacet 
	facet normal 0.186533 0.419564 -0.855039
		outer loop
			vertex 35.6838 -21.5187 -439.669
			vertex 34.9031 -21.4783 -439.822
			vertex 35.533 -20.7779 -439.302
		endloop
	endfacet 
	facet normal 0.030656 0.562547 -0.794836
		outer loop
			vertex 35.533 -20.7779 -439.302
			vertex 34.9031 -21.4783 -439.822
			vertex 34.7273 -20.744 -439.325
		endloop
	endfacet 
	facet normal 0.566752 0.274441 -0.743485
		outer loop
			vertex 36.439 -21.5011 -439.059
			vertex 35.6838 -21.5187 -439.669
			vertex 36.1967 -20.8818 -439.032
		endloop
	endfacet 
	facet normal 0.401127 0.462576 -0.757119
		outer loop
			vertex 36.1967 -20.8818 -439.032
			vertex 35.6838 -21.5187 -439.669
			vertex 35.533 -20.7779 -439.302
		endloop
	endfacet 
	facet normal 0.780265 0.234351 -0.555542
		outer loop
			vertex 37.1432 -21.5031 -438.034
			vertex 36.439 -21.5011 -439.059
			vertex 36.923 -20.6264 -437.906
		endloop
	endfacet 
	facet normal 0.680419 0.350261 -0.615024
		outer loop
			vertex 36.923 -20.6264 -437.906
			vertex 36.439 -21.5011 -439.059
			vertex 36.1967 -20.8818 -439.032
		endloop
	endfacet 
	facet normal 0.901769 0.156002 -0.383115
		outer loop
			vertex 37.6621 -20.7427 -436.466
			vertex 37.6693 -21.6654 -436.93
			vertex 37.1432 -21.5031 -438.034
		endloop
	endfacet 
	facet normal 0.839309 0.280282 -0.439733
		outer loop
			vertex 36.923 -20.6264 -437.906
			vertex 37.6621 -20.7427 -436.466
			vertex 37.1432 -21.5031 -438.034
		endloop
	endfacet 
	facet normal -0.817494 0.494868 -0.248609
		outer loop
			vertex 32.8406 -20.3566 -437.14
			vertex 32.8044 -20.7426 -437.675
			vertex 32.5882 -20.674 -436.881
		endloop
	endfacet 
	facet normal -0.802446 0.561516 -0.137814
		outer loop
			vertex 32.7413 -20.3396 -436.298
			vertex 32.8406 -20.3566 -437.14
			vertex 32.5882 -20.674 -436.881
		endloop
	endfacet 
	facet normal -0.679352 0.568551 -0.42318
		outer loop
			vertex 33.2866 -20.7511 -438.447
			vertex 32.8044 -20.7426 -437.675
			vertex 33.1996 -20.268 -437.665
		endloop
	endfacet 
	facet normal -0.706315 0.605396 -0.316879
		outer loop
			vertex 33.1996 -20.268 -437.665
			vertex 32.8044 -20.7426 -437.675
			vertex 32.8406 -20.3566 -437.14
		endloop
	endfacet 
	facet normal -0.473557 0.667108 -0.542248
		outer loop
			vertex 33.9517 -20.7418 -439.021
			vertex 33.2866 -20.7511 -438.447
			vertex 33.7789 -20.1769 -438.114
		endloop
	endfacet 
	facet normal -0.524959 0.701167 -0.445461
		outer loop
			vertex 33.7789 -20.1769 -438.114
			vertex 33.2866 -20.7511 -438.447
			vertex 33.1996 -20.268 -437.665
		endloop
	endfacet 
	facet normal -0.236069 0.728579 -0.61559
		outer loop
			vertex 34.7273 -20.744 -439.325
			vertex 33.9517 -20.7418 -439.021
			vertex 34.5217 -20.107 -438.396
		endloop
	endfacet 
	facet normal -0.316487 0.774267 -0.522553
		outer loop
			vertex 34.5217 -20.107 -438.396
			vertex 33.9517 -20.7418 -439.021
			vertex 33.7789 -20.1769 -438.114
		endloop
	endfacet 
	facet normal 0.0573335 0.725755 -0.658241
		outer loop
			vertex 35.533 -20.7779 -439.302
			vertex 34.7273 -20.744 -439.325
			vertex 35.3446 -20.0943 -438.475
		endloop
	endfacet 
	facet normal -0.0754996 0.797721 -0.574065
		outer loop
			vertex 35.3446 -20.0943 -438.475
			vertex 34.7273 -20.744 -439.325
			vertex 34.5217 -20.107 -438.396
		endloop
	endfacet 
	facet normal 0.393262 0.627853 -0.642638
		outer loop
			vertex 36.1967 -20.8818 -439.032
			vertex 35.533 -20.7779 -439.302
			vertex 36.2327 -20.1277 -438.13
		endloop
	endfacet 
	facet normal 0.230051 0.747872 -0.59443
		outer loop
			vertex 36.2327 -20.1277 -438.13
			vertex 35.533 -20.7779 -439.302
			vertex 35.3446 -20.0943 -438.475
		endloop
	endfacet 
	facet normal 0.716161 0.521494 -0.418414
		outer loop
			vertex 36.9986 -19.8014 -436.838
			vertex 37.3986 -20.121 -436.635
			vertex 36.923 -20.6264 -437.906
		endloop
	endfacet 
	facet normal 0.569068 0.634826 -0.474924
		outer loop
			vertex 36.9986 -19.8014 -436.838
			vertex 36.923 -20.6264 -437.906
			vertex 36.2327 -20.1277 -438.13
		endloop
	endfacet 
	facet normal 0.570591 0.553833 -0.566539
		outer loop
			vertex 36.2327 -20.1277 -438.13
			vertex 36.923 -20.6264 -437.906
			vertex 36.1967 -20.8818 -439.032
		endloop
	endfacet 
	facet normal 0.831968 0.370278 -0.395727
		outer loop
			vertex 37.6621 -20.7427 -436.466
			vertex 36.923 -20.6264 -437.906
			vertex 37.3986 -20.121 -436.635
		endloop
	endfacet 
	facet normal -0.686398 0.699268 -0.128963
		outer loop
			vertex 32.8406 -20.3566 -437.14
			vertex 32.7413 -20.3396 -436.298
			vertex 33.1523 -20.0203 -436.665
		endloop
	endfacet 
	facet normal -0.614512 0.739182 -0.234775
		outer loop
			vertex 33.1996 -20.268 -437.665
			vertex 32.8406 -20.3566 -437.14
			vertex 33.1523 -20.0203 -436.665
		endloop
	endfacet 
	facet normal -0.501309 0.820254 -0.238726
		outer loop
			vertex 33.5983 -19.8798 -437.152
			vertex 33.1996 -20.268 -437.665
			vertex 33.1523 -20.0203 -436.665
		endloop
	endfacet 
	facet normal -0.438718 0.819083 -0.343111
		outer loop
			vertex 33.7789 -20.1769 -438.114
			vertex 33.1996 -20.268 -437.665
			vertex 33.5983 -19.8798 -437.152
		endloop
	endfacet 
	facet normal -0.342118 0.878459 -0.31482
		outer loop
			vertex 34.2693 -19.6311 -437.049
			vertex 33.7789 -20.1769 -438.114
			vertex 33.5983 -19.8798 -437.152
		endloop
	endfacet 
	facet normal -0.271289 0.867701 -0.397474
		outer loop
			vertex 34.5217 -20.107 -438.396
			vertex 33.7789 -20.1769 -438.114
			vertex 34.2693 -19.6311 -437.049
		endloop
	endfacet 
	facet normal -0.174219 0.906558 -0.363541
		outer loop
			vertex 35.0836 -19.5703 -437.341
			vertex 34.5217 -20.107 -438.396
			vertex 34.2693 -19.6311 -437.049
		endloop
	endfacet 
	facet normal -0.058848 0.882266 -0.447095
		outer loop
			vertex 35.3446 -20.0943 -438.475
			vertex 34.5217 -20.107 -438.396
			vertex 35.0836 -19.5703 -437.341
		endloop
	endfacet 
	facet normal 0.0386697 0.904092 -0.408018
		outer loop
			vertex 35.8602 -19.5575 -437.266
			vertex 35.3446 -20.0943 -438.475
			vertex 35.0836 -19.5703 -437.341
		endloop
	endfacet 
	facet normal 0.194735 0.841664 -0.471177
		outer loop
			vertex 36.2327 -20.1277 -438.13
			vertex 35.3446 -20.0943 -438.475
			vertex 35.8602 -19.5575 -437.266
		endloop
	endfacet 
	facet normal 0.274685 0.852722 -0.414441
		outer loop
			vertex 36.4848 -19.539 -436.91
			vertex 36.2327 -20.1277 -438.13
			vertex 35.8602 -19.5575 -437.266
		endloop
	endfacet 
	facet normal 0.421566 0.788586 -0.424393
		outer loop
			vertex 36.9986 -19.8014 -436.838
			vertex 36.2327 -20.1277 -438.13
			vertex 36.4848 -19.539 -436.91
		endloop
	endfacet 
	facet normal -0.299397 -0.941223 -0.0694789
		outer loop
			vertex 34.5856 -24.3667 -436.336
			vertex 34.4431 -24.4175 -435.441
			vertex 34.1272 -24.2731 -435.934
		endloop
	endfacet 
	facet normal -0.047904 -0.979907 -0.116149
		outer loop
			vertex 34.5856 -24.3667 -436.336
			vertex 35.1563 -24.3985 -436.355
			vertex 34.896 -24.4773 -435.504
		endloop
	endfacet 
	facet normal -0.16898 -0.973798 -0.0338399
		outer loop
			vertex 34.4431 -24.4175 -435.441
			vertex 34.5856 -24.3667 -436.336
			vertex 34.896 -24.4773 -435.504
		endloop
	endfacet 
	facet normal 0.200761 -0.960944 -0.0985797
		outer loop
			vertex 35.1563 -24.3985 -436.355
			vertex 35.5716 -24.3708 -435.996
			vertex 35.2989 -24.4767 -435.579
		endloop
	endfacet 
	facet normal 0.0615846 -0.988131 -0.045735
		outer loop
			vertex 34.896 -24.4773 -435.504
			vertex 35.1563 -24.3985 -436.355
			vertex 35.2989 -24.4767 -435.579
		endloop
	endfacet 
	facet normal 0.302002 -0.941425 0.00257833
		outer loop
			vertex 35.2989 -24.4767 -435.579
			vertex 35.5716 -24.3708 -435.996
			vertex 35.576 -24.3899 -435.404
		endloop
	endfacet 
	facet normal -0.63576 -0.757526 -0.0688773
		outer loop
			vertex 32.7456 -23.3318 -437.005
			vertex 32.9734 -23.6277 -435.907
			vertex 32.5385 -23.3324 -435.943
		endloop
	endfacet 
	facet normal -0.54195 -0.780902 -0.267406
		outer loop
			vertex 32.7456 -23.3318 -437.005
			vertex 33.1048 -23.3306 -437.875
			vertex 33.3232 -23.681 -437.106
		endloop
	endfacet 
	facet normal -0.552384 -0.805786 -0.136092
		outer loop
			vertex 32.7456 -23.3318 -437.005
			vertex 33.3232 -23.681 -437.106
			vertex 32.9734 -23.6277 -435.907
		endloop
	endfacet 
	facet normal -0.479807 -0.867271 -0.0800703
		outer loop
			vertex 32.9734 -23.6277 -435.907
			vertex 33.3232 -23.681 -437.106
			vertex 33.6077 -23.9875 -435.921
		endloop
	endfacet 
	facet normal -0.311199 -0.923037 -0.180409
		outer loop
			vertex 34.1272 -24.2731 -435.934
			vertex 34.101 -23.9827 -437.156
			vertex 34.5856 -24.3667 -436.336
		endloop
	endfacet 
	facet normal -0.406369 -0.895141 -0.128452
		outer loop
			vertex 34.1272 -24.2731 -435.934
			vertex 33.6077 -23.9875 -435.921
			vertex 34.101 -23.9827 -437.156
		endloop
	endfacet 
	facet normal -0.407264 -0.88705 -0.176632
		outer loop
			vertex 33.6077 -23.9875 -435.921
			vertex 33.3232 -23.681 -437.106
			vertex 34.101 -23.9827 -437.156
		endloop
	endfacet 
	facet normal -0.174717 -0.934069 -0.276379
		outer loop
			vertex 34.9267 -24.0761 -437.388
			vertex 34.5856 -24.3667 -436.336
			vertex 34.101 -23.9827 -437.156
		endloop
	endfacet 
	facet normal -0.0418393 -0.958363 -0.247758
		outer loop
			vertex 35.1563 -24.3985 -436.355
			vertex 34.5856 -24.3667 -436.336
			vertex 34.9267 -24.0761 -437.388
		endloop
	endfacet 
	facet normal 0.117736 -0.942746 -0.275334
		outer loop
			vertex 35.7067 -24.0644 -437.03
			vertex 35.1563 -24.3985 -436.355
			vertex 34.9267 -24.0761 -437.388
		endloop
	endfacet 
	facet normal 0.250847 -0.937103 -0.19657
		outer loop
			vertex 35.5716 -24.3708 -435.996
			vertex 35.1563 -24.3985 -436.355
			vertex 35.7067 -24.0644 -437.03
		endloop
	endfacet 
	facet normal 0.395367 -0.913458 0.00742021
		outer loop
			vertex 35.5716 -24.3708 -435.996
			vertex 36.1077 -24.0767 -435.433
			vertex 35.576 -24.3899 -435.404
		endloop
	endfacet 
	facet normal 0.364889 -0.913543 -0.116044
		outer loop
			vertex 35.5716 -24.3708 -435.996
			vertex 35.7067 -24.0644 -437.03
			vertex 36.1077 -24.0767 -435.433
		endloop
	endfacet 
	facet normal 0.343313 -0.915559 -0.149208
		outer loop
			vertex 35.7067 -24.0644 -437.03
			vertex 36.4602 -23.8392 -436.973
			vertex 36.1077 -24.0767 -435.433
		endloop
	endfacet 
	facet normal 0.49741 -0.849218 -0.124008
		outer loop
			vertex 36.9222 -23.691 -436.924
			vertex 37.0763 -23.6732 -436.565
			vertex 36.8154 -23.8079 -436.203
		endloop
	endfacet 
	facet normal 0.391111 -0.899833 -0.152388
		outer loop
			vertex 36.9222 -23.691 -436.924
			vertex 36.8154 -23.8079 -436.203
			vertex 36.4602 -23.8392 -436.973
		endloop
	endfacet 
	facet normal 0.382504 -0.913591 -0.062721
		outer loop
			vertex 36.4602 -23.8392 -436.973
			vertex 36.8154 -23.8079 -436.203
			vertex 36.1077 -24.0767 -435.433
		endloop
	endfacet 
	facet normal 0.590149 -0.789698 -0.024995
		outer loop
			vertex 36.8154 -23.8079 -436.203
			vertex 37.0763 -23.6732 -436.565
			vertex 37.1678 -23.5686 -436.011
		endloop
	endfacet 
	facet normal -0.893728 -0.416518 -0.023563
		outer loop
			vertex 32.3561 -23.0125 -436.429
			vertex 32.3355 -23.0798 -435.545
			vertex 32.1906 -22.7699 -435.794
		endloop
	endfacet 
	facet normal -0.799037 -0.573656 -0.0293472
		outer loop
			vertex 32.5385 -23.3324 -435.943
			vertex 32.3355 -23.0798 -435.545
			vertex 32.3561 -23.0125 -436.429
		endloop
	endfacet 
	facet normal -0.748278 -0.628536 -0.125136
		outer loop
			vertex 32.7456 -23.3318 -437.005
			vertex 32.5385 -23.3324 -435.943
			vertex 32.3561 -23.0125 -436.429
		endloop
	endfacet 
	facet normal -0.819809 -0.472074 -0.240575
		outer loop
			vertex 32.7456 -23.3318 -437.005
			vertex 32.3561 -23.0125 -436.429
			vertex 32.6054 -22.7406 -437.563
		endloop
	endfacet 
	facet normal -0.784852 -0.488702 -0.315077
		outer loop
			vertex 32.7456 -23.3318 -437.005
			vertex 32.6054 -22.7406 -437.563
			vertex 32.8381 -23.1195 -437.84
		endloop
	endfacet 
	facet normal -0.636682 -0.691602 -0.310534
		outer loop
			vertex 33.1048 -23.3306 -437.875
			vertex 32.7456 -23.3318 -437.005
			vertex 32.8381 -23.1195 -437.84
		endloop
	endfacet 
	facet normal 0.662646 -0.703434 -0.182558
		outer loop
			vertex 36.9222 -23.691 -436.924
			vertex 37.2392 -23.3783 -436.739
			vertex 37.0763 -23.6732 -436.565
		endloop
	endfacet 
	facet normal 0.875009 -0.452353 -0.100344
		outer loop
			vertex 37.5589 -22.8915 -436.53
			vertex 37.8342 -22.5079 -435.734
			vertex 37.5315 -23.0979 -435.342
		endloop
	endfacet 
	facet normal 0.835704 -0.520638 -0.128629
		outer loop
			vertex 37.2392 -23.3783 -436.739
			vertex 37.5589 -22.8915 -436.53
			vertex 37.5315 -23.0979 -435.342
		endloop
	endfacet 
	facet normal 0.774827 -0.615789 -0.0604782
		outer loop
			vertex 37.2392 -23.3783 -436.739
			vertex 37.5315 -23.0979 -435.342
			vertex 37.1678 -23.5686 -436.011
		endloop
	endfacet 
	facet normal 0.754858 -0.637813 -0.0871429
		outer loop
			vertex 37.2392 -23.3783 -436.739
			vertex 37.1678 -23.5686 -436.011
			vertex 37.0763 -23.6732 -436.565
		endloop
	endfacet 
	facet normal 0.888659 -0.433411 -0.0439799
		outer loop
			vertex 37.5315 -23.0979 -435.342
			vertex 37.8342 -22.5079 -435.734
			vertex 37.8946 -22.5441 -434.57
		endloop
	endfacet 
	facet normal -0.936622 -0.285324 -0.119148
		outer loop
			vertex 32.2361 -22.4877 -436.582
			vertex 32.3561 -23.0125 -436.429
			vertex 32.1906 -22.7699 -435.794
		endloop
	endfacet 
	facet normal -0.977466 -0.156781 -0.0479381
		outer loop
			vertex 32.1398 -22.3192 -435.626
			vertex 32.2361 -22.4877 -436.582
			vertex 32.1906 -22.7699 -435.794
		endloop
	endfacet 
	facet normal -0.935773 -0.128321 -0.297968
		outer loop
			vertex 32.6054 -22.7406 -437.563
			vertex 32.2361 -22.4877 -436.582
			vertex 32.4637 -21.9884 -437.458
		endloop
	endfacet 
	facet normal -0.913462 -0.286 -0.24037
		outer loop
			vertex 32.3561 -23.0125 -436.429
			vertex 32.2361 -22.4877 -436.582
			vertex 32.6054 -22.7406 -437.563
		endloop
	endfacet 
	facet normal 0.951997 -0.208896 -0.186819
		outer loop
			vertex 37.8342 -22.5079 -435.734
			vertex 37.645 -22.3807 -436.864
			vertex 37.9452 -21.9067 -435.864
		endloop
	endfacet 
	facet normal 0.92175 -0.318252 -0.188759
		outer loop
			vertex 37.5589 -22.8915 -436.53
			vertex 37.645 -22.3807 -436.864
			vertex 37.8342 -22.5079 -435.734
		endloop
	endfacet 
	facet normal 0.94941 -0.29567 -0.0498489
		outer loop
			vertex 38.018 -22.1164 -434.92
			vertex 37.8946 -22.5441 -434.57
			vertex 37.8342 -22.5079 -435.734
		endloop
	endfacet 
	facet normal 0.966007 -0.205256 -0.104273
		outer loop
			vertex 37.9452 -21.9067 -435.864
			vertex 38.018 -22.1164 -434.92
			vertex 37.8342 -22.5079 -435.734
		endloop
	endfacet 
	facet normal -0.9844 -0.0452593 -0.0988953
		outer loop
			vertex 32.1863 -21.897 -436.401
			vertex 32.2361 -22.4877 -436.582
			vertex 32.1398 -22.3192 -435.626
		endloop
	endfacet 
	facet normal -0.990986 0.040625 -0.0097356
		outer loop
			vertex 32.1428 -21.8302 -435.536
			vertex 32.1863 -21.897 -436.401
			vertex 32.1398 -22.3192 -435.626
		endloop
	endfacet 
	facet normal -0.956802 0.111516 -0.236792
		outer loop
			vertex 32.4637 -21.9884 -437.458
			vertex 32.1863 -21.897 -436.401
			vertex 32.4328 -21.2656 -437
		endloop
	endfacet 
	facet normal -0.965867 -0.0161239 -0.227703
		outer loop
			vertex 32.2361 -22.4877 -436.582
			vertex 32.1863 -21.897 -436.401
			vertex 32.4637 -21.9884 -437.458
		endloop
	endfacet 
	facet normal 0.968248 0.00350235 -0.227554
		outer loop
			vertex 37.9452 -21.9067 -435.864
			vertex 37.6693 -21.6654 -436.93
			vertex 37.9805 -21.2259 -435.691
		endloop
	endfacet 
	facet normal 0.954127 -0.0805857 -0.260356
		outer loop
			vertex 37.645 -22.3807 -436.864
			vertex 37.6693 -21.6654 -436.93
			vertex 37.9452 -21.9067 -435.864
		endloop
	endfacet 
	facet normal 0.987584 -0.104581 -0.068127
		outer loop
			vertex 38.0699 -21.5666 -434.672
			vertex 38.018 -22.1164 -434.92
			vertex 37.9452 -21.9067 -435.864
		endloop
	endfacet 
	facet normal 0.987694 -0.0241324 -0.117872
		outer loop
			vertex 37.9805 -21.2259 -435.691
			vertex 38.0699 -21.5666 -434.672
			vertex 37.9452 -21.9067 -435.864
		endloop
	endfacet 
	facet normal -0.978068 0.159864 -0.0369285
		outer loop
			vertex 32.1863 -21.897 -436.401
			vertex 32.1428 -21.8302 -435.536
			vertex 32.2235 -21.4447 -435.989
		endloop
	endfacet 
	facet normal -0.962417 0.201619 -0.135178
		outer loop
			vertex 32.2235 -21.4447 -435.989
			vertex 32.4328 -21.2656 -437
			vertex 32.1863 -21.897 -436.401
		endloop
	endfacet 
	facet normal -0.939958 0.308238 -0.0799569
		outer loop
			vertex 32.2235 -21.4447 -435.989
			vertex 32.4563 -20.872 -435.879
			vertex 32.4328 -21.2656 -437
		endloop
	endfacet 
	facet normal -0.920156 0.350264 -0.119528
		outer loop
			vertex 32.4563 -20.872 -435.879
			vertex 32.5882 -20.674 -436.881
			vertex 32.4328 -21.2656 -437
		endloop
	endfacet 
	facet normal 0.950421 0.176783 -0.225195
		outer loop
			vertex 37.9805 -21.2259 -435.691
			vertex 37.6621 -20.7427 -436.466
			vertex 37.9943 -20.7695 -435.445
		endloop
	endfacet 
	facet normal 0.942335 0.126934 -0.279954
		outer loop
			vertex 37.6693 -21.6654 -436.93
			vertex 37.6621 -20.7427 -436.466
			vertex 37.9805 -21.2259 -435.691
		endloop
	endfacet 
	facet normal 0.991965 0.0412397 -0.055077
		outer loop
			vertex 38.0535 -20.8799 -434.46
			vertex 38.0699 -21.5666 -434.672
			vertex 37.9805 -21.2259 -435.691
		endloop
	endfacet 
	facet normal 0.980604 0.118723 -0.110001
		outer loop
			vertex 37.9943 -20.7695 -435.445
			vertex 38.0535 -20.8799 -434.46
			vertex 37.9805 -21.2259 -435.691
		endloop
	endfacet 
	facet normal -0.865776 0.476839 -0.0581786
		outer loop
			vertex 32.5882 -20.674 -436.881
			vertex 32.4563 -20.872 -435.879
			vertex 32.7413 -20.3396 -436.298
		endloop
	endfacet 
	facet normal -0.844282 0.52134 0.020768
		outer loop
			vertex 32.4563 -20.872 -435.879
			vertex 32.716 -20.4044 -435.358
			vertex 32.7413 -20.3396 -436.298
		endloop
	endfacet 
	facet normal 0.70967 0.590677 -0.33571
		outer loop
			vertex 37.3986 -20.121 -436.635
			vertex 36.9986 -19.8014 -436.838
			vertex 37.4037 -19.7855 -436.16
		endloop
	endfacet 
	facet normal 0.838058 0.476136 -0.245335
		outer loop
			vertex 37.3986 -20.121 -436.635
			vertex 37.4037 -19.7855 -436.16
			vertex 37.6436 -19.9664 -435.329
		endloop
	endfacet 
	facet normal 0.866059 0.39649 -0.271838
		outer loop
			vertex 37.6621 -20.7427 -436.466
			vertex 37.3986 -20.121 -436.635
			vertex 37.6436 -19.9664 -435.329
		endloop
	endfacet 
	facet normal 0.898482 0.370478 -0.191154
		outer loop
			vertex 37.6621 -20.7427 -436.466
			vertex 37.6436 -19.9664 -435.329
			vertex 37.9413 -20.4148 -435.022
		endloop
	endfacet 
	facet normal 0.934937 0.269834 -0.203667
		outer loop
			vertex 37.6621 -20.7427 -436.466
			vertex 37.9413 -20.4148 -435.022
			vertex 37.9943 -20.7695 -435.445
		endloop
	endfacet 
	facet normal 0.96512 0.211774 -0.0884739
		outer loop
			vertex 38.0535 -20.8799 -434.46
			vertex 37.9943 -20.7695 -435.445
			vertex 37.9413 -20.4148 -435.022
		endloop
	endfacet 
	facet normal -0.747252 0.649296 0.0235406
		outer loop
			vertex 32.7413 -20.3396 -436.298
			vertex 32.716 -20.4044 -435.358
			vertex 33.0658 -20.0247 -435.536
		endloop
	endfacet 
	facet normal -0.652698 0.742547 -0.0465554
		outer loop
			vertex 33.1523 -20.0203 -436.665
			vertex 32.7413 -20.3396 -436.298
			vertex 33.0658 -20.0247 -435.536
		endloop
	endfacet 
	facet normal -0.472687 0.864451 -0.136423
		outer loop
			vertex 33.5983 -19.8798 -437.152
			vertex 33.1523 -20.0203 -436.665
			vertex 33.7472 -19.6229 -435.728
		endloop
	endfacet 
	facet normal -0.552191 0.826657 -0.0500643
		outer loop
			vertex 33.1523 -20.0203 -436.665
			vertex 33.0658 -20.0247 -435.536
			vertex 33.7472 -19.6229 -435.728
		endloop
	endfacet 
	facet normal -0.427778 0.897661 -0.0587148
		outer loop
			vertex 34.3623 -19.3025 -435.826
			vertex 33.7472 -19.6229 -435.728
			vertex 34.2921 -19.2738 -434.96
		endloop
	endfacet 
	facet normal -0.368716 0.907728 -0.155697
		outer loop
			vertex 34.3623 -19.3025 -435.826
			vertex 34.2693 -19.6311 -437.049
			vertex 33.7472 -19.6229 -435.728
		endloop
	endfacet 
	facet normal -0.380956 0.896602 -0.185253
		outer loop
			vertex 34.2693 -19.6311 -437.049
			vertex 33.5983 -19.8798 -437.152
			vertex 33.7472 -19.6229 -435.728
		endloop
	endfacet 
	facet normal -0.154004 0.944897 -0.268182
		outer loop
			vertex 34.2693 -19.6311 -437.049
			vertex 34.8672 -19.2406 -436.076
			vertex 35.0836 -19.5703 -437.341
		endloop
	endfacet 
	facet normal -0.247861 0.940237 -0.20362
		outer loop
			vertex 34.3623 -19.3025 -435.826
			vertex 34.8672 -19.2406 -436.076
			vertex 34.2693 -19.6311 -437.049
		endloop
	endfacet 
	facet normal 0.0186517 0.948452 -0.296019
		outer loop
			vertex 35.0836 -19.5703 -437.341
			vertex 35.5592 -19.2115 -436.069
			vertex 35.8602 -19.5575 -437.266
		endloop
	endfacet 
	facet normal -0.0586505 0.964965 -0.239736
		outer loop
			vertex 34.8672 -19.2406 -436.076
			vertex 35.5592 -19.2115 -436.069
			vertex 35.0836 -19.5703 -437.341
		endloop
	endfacet 
	facet normal 0.189979 0.926621 -0.299063
		outer loop
			vertex 35.8602 -19.5575 -437.266
			vertex 36.2488 -19.2352 -435.971
			vertex 36.4848 -19.539 -436.91
		endloop
	endfacet 
	facet normal 0.0900111 0.959923 -0.243801
		outer loop
			vertex 35.5592 -19.2115 -436.069
			vertex 36.2488 -19.2352 -435.971
			vertex 35.8602 -19.5575 -437.266
		endloop
	endfacet 
	facet normal 0.275992 0.921187 -0.240794
		outer loop
			vertex 36.4848 -19.539 -436.91
			vertex 36.2488 -19.2352 -435.971
			vertex 36.8265 -19.3526 -435.846
		endloop
	endfacet 
	facet normal 0.413762 0.840863 -0.311536
		outer loop
			vertex 36.9986 -19.8014 -436.838
			vertex 36.4848 -19.539 -436.91
			vertex 36.8265 -19.3526 -435.846
		endloop
	endfacet 
	facet normal 0.513446 0.807493 -0.235719
		outer loop
			vertex 36.9986 -19.8014 -436.838
			vertex 36.8265 -19.3526 -435.846
			vertex 37.275 -19.5543 -435.573
		endloop
	endfacet 
	facet normal 0.601226 0.74623 -0.260693
		outer loop
			vertex 36.9986 -19.8014 -436.838
			vertex 37.275 -19.5543 -435.573
			vertex 37.4037 -19.7855 -436.16
		endloop
	endfacet 
	facet normal 0.723246 0.654424 -0.166275
		outer loop
			vertex 37.6436 -19.9664 -435.329
			vertex 37.4037 -19.7855 -436.16
			vertex 37.275 -19.5543 -435.573
		endloop
	endfacet 
	facet normal -0.339454 0.930665 -0.0591328
		outer loop
			vertex 34.3623 -19.3025 -435.826
			vertex 34.2921 -19.2738 -434.96
			vertex 34.6792 -19.1315 -435.152
		endloop
	endfacet 
	facet normal -0.227515 0.958062 -0.130026
		outer loop
			vertex 34.8672 -19.2406 -436.076
			vertex 34.3623 -19.3025 -435.826
			vertex 34.6792 -19.1315 -435.152
		endloop
	endfacet 
	facet normal -0.127037 0.98262 -0.0909946
		outer loop
			vertex 35.2083 -19.0717 -434.737
			vertex 34.8672 -19.2406 -436.076
			vertex 34.6792 -19.1315 -435.152
		endloop
	endfacet 
	facet normal -0.0520293 0.984863 -0.136144
		outer loop
			vertex 35.5592 -19.2115 -436.069
			vertex 34.8672 -19.2406 -436.076
			vertex 35.2083 -19.0717 -434.737
		endloop
	endfacet 
	facet normal 0.0144334 0.992289 -0.0785613
		outer loop
			vertex 35.9275 -19.0822 -434.735
			vertex 35.5592 -19.2115 -436.069
			vertex 35.2083 -19.0717 -434.737
		endloop
	endfacet 
	facet normal 0.0791716 0.983861 -0.129936
		outer loop
			vertex 36.2488 -19.2352 -435.971
			vertex 35.5592 -19.2115 -436.069
			vertex 35.9275 -19.0822 -434.735
		endloop
	endfacet 
	facet normal 0.153101 0.980605 -0.0676662
		outer loop
			vertex 36.5605 -19.1725 -434.732
			vertex 36.2488 -19.2352 -435.971
			vertex 35.9275 -19.0822 -434.735
		endloop
	endfacet 
	facet normal 0.249953 0.951233 -0.123262
		outer loop
			vertex 36.8265 -19.3526 -435.846
			vertex 36.2488 -19.2352 -435.971
			vertex 36.5605 -19.1725 -434.732
		endloop
	endfacet 
	facet normal -0.379944 -0.914422 0.0542405
		outer loop
			vertex 34.4431 -24.4175 -435.441
			vertex 34.0755 -24.1336 -434.745
			vertex 34.1272 -24.2731 -435.934
		endloop
	endfacet 
	facet normal -0.153083 -0.973618 0.10311
		outer loop
			vertex 34.4431 -24.4175 -435.441
			vertex 34.896 -24.4773 -435.504
			vertex 34.6635 -24.3471 -434.72
		endloop
	endfacet 
	facet normal -0.283311 -0.935571 0.152421
		outer loop
			vertex 34.0755 -24.1336 -434.745
			vertex 34.4431 -24.4175 -435.441
			vertex 34.6635 -24.3471 -434.72
		endloop
	endfacet 
	facet normal 0.0938749 -0.981782 0.0975876
		outer loop
			vertex 34.896 -24.4773 -435.504
			vertex 35.2989 -24.4767 -435.579
			vertex 35.3152 -24.2765 -434.588
		endloop
	endfacet 
	facet normal 0.000283157 -0.973377 0.164123
		outer loop
			vertex 34.6635 -24.3471 -434.72
			vertex 34.896 -24.4773 -435.504
			vertex 35.3152 -24.2765 -434.588
		endloop
	endfacet 
	facet normal 0.234247 -0.954834 0.119069
		outer loop
			vertex 35.2989 -24.4767 -435.579
			vertex 35.576 -24.3899 -435.404
			vertex 35.3152 -24.2765 -434.588
		endloop
	endfacet 
	facet normal -0.629166 -0.762639 0.0670922
		outer loop
			vertex 32.9734 -23.6277 -435.907
			vertex 32.6905 -23.268 -434.835
			vertex 32.5385 -23.3324 -435.943
		endloop
	endfacet 
	facet normal -0.514387 -0.849004 0.0564373
		outer loop
			vertex 32.9734 -23.6277 -435.907
			vertex 33.6077 -23.9875 -435.921
			vertex 33.3489 -23.6943 -434.624
		endloop
	endfacet 
	facet normal -0.580372 -0.792632 0.136386
		outer loop
			vertex 32.6905 -23.268 -434.835
			vertex 32.9734 -23.6277 -435.907
			vertex 33.3489 -23.6943 -434.624
		endloop
	endfacet 
	facet normal -0.44285 -0.888817 0.029158
		outer loop
			vertex 33.6077 -23.9875 -435.921
			vertex 34.1272 -24.2731 -435.934
			vertex 34.0755 -24.1336 -434.745
		endloop
	endfacet 
	facet normal -0.478326 -0.86246 0.117485
		outer loop
			vertex 33.6077 -23.9875 -435.921
			vertex 34.0755 -24.1336 -434.745
			vertex 33.3489 -23.6943 -434.624
		endloop
	endfacet 
	facet normal -0.466433 -0.84639 0.240773
		outer loop
			vertex 33.3489 -23.6943 -434.624
			vertex 34.0755 -24.1336 -434.745
			vertex 33.9087 -23.62 -433.357
		endloop
	endfacet 
	facet normal -0.249313 -0.92418 0.249578
		outer loop
			vertex 34.6635 -24.3471 -434.72
			vertex 34.694 -23.9607 -433.514
			vertex 34.0755 -24.1336 -434.745
		endloop
	endfacet 
	facet normal -0.348487 -0.880393 0.287874
		outer loop
			vertex 34.694 -23.9607 -433.514
			vertex 33.9087 -23.62 -433.357
			vertex 34.0755 -24.1336 -434.745
		endloop
	endfacet 
	facet normal 0.195754 -0.938917 0.267539
		outer loop
			vertex 35.3855 -23.8911 -433.19
			vertex 35.3152 -24.2765 -434.588
			vertex 35.9369 -23.8921 -433.673
		endloop
	endfacet 
	facet normal 0.0355805 -0.938961 0.300215
		outer loop
			vertex 35.3855 -23.8911 -433.19
			vertex 34.694 -23.9607 -433.514
			vertex 35.3152 -24.2765 -434.588
		endloop
	endfacet 
	facet normal -0.047664 -0.948448 0.263912
		outer loop
			vertex 34.694 -23.9607 -433.514
			vertex 34.6635 -24.3471 -434.72
			vertex 35.3152 -24.2765 -434.588
		endloop
	endfacet 
	facet normal 0.374695 -0.890213 0.243197
		outer loop
			vertex 36.4891 -23.7532 -434.011
			vertex 36.4001 -23.5264 -432.991
			vertex 35.9369 -23.8921 -433.673
		endloop
	endfacet 
	facet normal 0.384601 -0.905208 0.148524
		outer loop
			vertex 36.1077 -24.0767 -435.433
			vertex 36.4891 -23.7532 -434.011
			vertex 35.9369 -23.8921 -433.673
		endloop
	endfacet 
	facet normal 0.299466 -0.928841 0.169543
		outer loop
			vertex 36.1077 -24.0767 -435.433
			vertex 35.9369 -23.8921 -433.673
			vertex 35.3152 -24.2765 -434.588
		endloop
	endfacet 
	facet normal 0.327612 -0.926867 0.123911
		outer loop
			vertex 36.1077 -24.0767 -435.433
			vertex 35.3152 -24.2765 -434.588
			vertex 35.576 -24.3899 -435.404
		endloop
	endfacet 
	facet normal 0.464145 -0.879874 0.0446941
		outer loop
			vertex 36.1077 -24.0767 -435.433
			vertex 36.8154 -23.8079 -436.203
			vertex 36.9581 -23.5986 -434.893
		endloop
	endfacet 
	facet normal 0.471616 -0.871293 0.102817
		outer loop
			vertex 36.4891 -23.7532 -434.011
			vertex 36.1077 -24.0767 -435.433
			vertex 36.9581 -23.5986 -434.893
		endloop
	endfacet 
	facet normal 0.559475 -0.813131 0.0414698
		outer loop
			vertex 36.8154 -23.8079 -436.203
			vertex 37.1678 -23.5686 -436.011
			vertex 36.9581 -23.5986 -434.893
		endloop
	endfacet 
	facet normal -0.911896 -0.360511 0.109769
		outer loop
			vertex 32.3355 -23.0798 -435.545
			vertex 32.3409 -22.7245 -434.821
			vertex 32.1906 -22.7699 -435.794
		endloop
	endfacet 
	facet normal -0.731066 -0.658635 0.0961457
		outer loop
			vertex 32.3355 -23.0798 -435.545
			vertex 32.5385 -23.3324 -435.943
			vertex 32.6905 -23.268 -434.835
		endloop
	endfacet 
	facet normal -0.813354 -0.511062 0.178089
		outer loop
			vertex 32.3355 -23.0798 -435.545
			vertex 32.6905 -23.268 -434.835
			vertex 32.3409 -22.7245 -434.821
		endloop
	endfacet 
	facet normal -0.803433 -0.491086 0.262381
		outer loop
			vertex 32.3409 -22.7245 -434.821
			vertex 32.6905 -23.268 -434.835
			vertex 32.6515 -22.9059 -434.048
		endloop
	endfacet 
	facet normal -0.628841 -0.718311 0.264406
		outer loop
			vertex 33.3489 -23.6943 -434.624
			vertex 33.1928 -23.0532 -433.3
			vertex 32.6905 -23.268 -434.835
		endloop
	endfacet 
	facet normal -0.703207 -0.629363 0.313229
		outer loop
			vertex 33.1928 -23.0532 -433.3
			vertex 32.6515 -22.9059 -434.048
			vertex 32.6905 -23.268 -434.835
		endloop
	endfacet 
	facet normal -0.396076 -0.786735 0.454194
		outer loop
			vertex 33.8848 -23.0974 -432.33
			vertex 33.9087 -23.62 -433.357
			vertex 34.5247 -23.3351 -432.258
		endloop
	endfacet 
	facet normal -0.534301 -0.723062 0.410182
		outer loop
			vertex 33.8848 -23.0974 -432.33
			vertex 33.1928 -23.0532 -433.3
			vertex 33.9087 -23.62 -433.357
		endloop
	endfacet 
	facet normal -0.550963 -0.758612 0.307746
		outer loop
			vertex 33.1928 -23.0532 -433.3
			vertex 33.3489 -23.6943 -434.624
			vertex 33.9087 -23.62 -433.357
		endloop
	endfacet 
	facet normal -0.294794 -0.856289 0.39886
		outer loop
			vertex 34.694 -23.9607 -433.514
			vertex 34.5247 -23.3351 -432.258
			vertex 33.9087 -23.62 -433.357
		endloop
	endfacet 
	facet normal -0.162348 -0.87029 0.446261
		outer loop
			vertex 35.1425 -23.5536 -432.398
			vertex 34.5247 -23.3351 -432.258
			vertex 34.694 -23.9607 -433.514
		endloop
	endfacet 
	facet normal -0.0363537 -0.911528 0.384808
		outer loop
			vertex 35.3855 -23.8911 -433.19
			vertex 35.1425 -23.5536 -432.398
			vertex 34.694 -23.9607 -433.514
		endloop
	endfacet 
	facet normal 0.453677 -0.851262 0.246084
		outer loop
			vertex 36.4891 -23.7532 -434.011
			vertex 36.9154 -23.3506 -433.377
			vertex 36.4001 -23.5264 -432.991
		endloop
	endfacet 
	facet normal 0.509652 -0.838358 0.171969
		outer loop
			vertex 36.9581 -23.5986 -434.893
			vertex 36.9154 -23.3506 -433.377
			vertex 36.4891 -23.7532 -434.011
		endloop
	endfacet 
	facet normal 0.574644 -0.798121 0.164198
		outer loop
			vertex 37.409 -23.128 -433.935
			vertex 36.9154 -23.3506 -433.377
			vertex 36.9581 -23.5986 -434.893
		endloop
	endfacet 
	facet normal 0.729131 -0.655838 0.146341
		outer loop
			vertex 37.7371 -22.8479 -434.134
			vertex 37.6677 -22.7809 -433.406
			vertex 37.409 -23.128 -433.935
		endloop
	endfacet 
	facet normal 0.743493 -0.652724 0.0631327
		outer loop
			vertex 37.5315 -23.0979 -435.342
			vertex 37.7371 -22.8479 -434.134
			vertex 37.409 -23.128 -433.935
		endloop
	endfacet 
	facet normal 0.662417 -0.729319 0.077166
		outer loop
			vertex 37.5315 -23.0979 -435.342
			vertex 37.409 -23.128 -433.935
			vertex 36.9581 -23.5986 -434.893
		endloop
	endfacet 
	facet normal 0.689371 -0.709235 0.0399354
		outer loop
			vertex 37.5315 -23.0979 -435.342
			vertex 36.9581 -23.5986 -434.893
			vertex 37.1678 -23.5686 -436.011
		endloop
	endfacet 
	facet normal 0.844976 -0.518547 0.0141147
		outer loop
			vertex 37.5315 -23.0979 -435.342
			vertex 37.8946 -22.5441 -434.57
			vertex 37.7371 -22.8479 -434.134
		endloop
	endfacet 
	facet normal -0.964346 -0.115305 0.176763
		outer loop
			vertex 32.3409 -22.7245 -434.821
			vertex 32.2914 -22.0506 -434.678
			vertex 32.1398 -22.3192 -435.626
		endloop
	endfacet 
	facet normal -0.963358 -0.206981 0.0956668
		outer loop
			vertex 32.1906 -22.7699 -435.794
			vertex 32.3409 -22.7245 -434.821
			vertex 32.1398 -22.3192 -435.626
		endloop
	endfacet 
	facet normal -0.897388 -0.277937 0.324303
		outer loop
			vertex 32.6515 -22.9059 -434.048
			vertex 32.7017 -22.3701 -433.571
			vertex 32.3409 -22.7245 -434.821
		endloop
	endfacet 
	facet normal -0.933775 -0.148106 0.291224
		outer loop
			vertex 32.7017 -22.3701 -433.571
			vertex 32.2914 -22.0506 -434.678
			vertex 32.3409 -22.7245 -434.821
		endloop
	endfacet 
	facet normal -0.72395 -0.447395 0.49104
		outer loop
			vertex 33.2309 -22.3716 -432.475
			vertex 33.1928 -23.0532 -433.3
			vertex 33.6472 -22.6401 -432.061
		endloop
	endfacet 
	facet normal -0.804664 -0.348781 0.425781
		outer loop
			vertex 33.2309 -22.3716 -432.475
			vertex 32.7017 -22.3701 -433.571
			vertex 33.1928 -23.0532 -433.3
		endloop
	endfacet 
	facet normal -0.79946 -0.421041 0.373506
		outer loop
			vertex 32.7017 -22.3701 -433.571
			vertex 32.6515 -22.9059 -434.048
			vertex 33.1928 -23.0532 -433.3
		endloop
	endfacet 
	facet normal -0.609708 -0.600654 0.492279
		outer loop
			vertex 33.8848 -23.0974 -432.33
			vertex 33.6472 -22.6401 -432.061
			vertex 33.1928 -23.0532 -433.3
		endloop
	endfacet 
	facet normal 0.828916 -0.51636 0.14689
		outer loop
			vertex 37.7371 -22.8479 -434.134
			vertex 37.8609 -22.5413 -433.677
			vertex 37.6677 -22.7809 -433.406
		endloop
	endfacet 
	facet normal 0.887327 -0.434148 0.06655
		outer loop
			vertex 37.8609 -22.5413 -433.677
			vertex 37.7371 -22.8479 -434.134
			vertex 37.8946 -22.5441 -434.57
		endloop
	endfacet 
	facet normal 0.945863 -0.286432 0.0924245
		outer loop
			vertex 37.8609 -22.5413 -433.677
			vertex 37.8946 -22.5441 -434.57
			vertex 37.9618 -22.0429 -433.745
		endloop
	endfacet 
	facet normal 0.964263 -0.23309 0.0341202
		outer loop
			vertex 37.9618 -22.0429 -433.745
			vertex 37.8946 -22.5441 -434.57
			vertex 38.018 -22.1164 -434.92
		endloop
	endfacet 
	facet normal -0.966814 0.141186 0.163597
		outer loop
			vertex 32.2914 -22.0506 -434.678
			vertex 32.3222 -21.4127 -435.024
			vertex 32.1428 -21.8302 -435.536
		endloop
	endfacet 
	facet normal -0.98504 0.0207801 0.122318
		outer loop
			vertex 32.1398 -22.3192 -435.626
			vertex 32.2914 -22.0506 -434.678
			vertex 32.1428 -21.8302 -435.536
		endloop
	endfacet 
	facet normal -0.933841 0.00689799 0.322268
		outer loop
			vertex 32.7017 -22.3701 -433.571
			vertex 32.6272 -21.5482 -433.8
			vertex 32.2914 -22.0506 -434.678
		endloop
	endfacet 
	facet normal -0.946186 0.160105 0.249085
		outer loop
			vertex 32.6272 -21.5482 -433.8
			vertex 32.3222 -21.4127 -435.024
			vertex 32.2914 -22.0506 -434.678
		endloop
	endfacet 
	facet normal -0.869541 -0.115763 0.455349
		outer loop
			vertex 33.1247 -21.7145 -432.59
			vertex 32.7017 -22.3701 -433.571
			vertex 33.2309 -22.3716 -432.475
		endloop
	endfacet 
	facet normal -0.903109 0.0279994 0.397846
		outer loop
			vertex 32.6272 -21.5482 -433.8
			vertex 32.7017 -22.3701 -433.571
			vertex 33.1247 -21.7145 -432.59
		endloop
	endfacet 
	facet normal 0.986811 -0.12362 0.0337077
		outer loop
			vertex 38.018 -22.1164 -434.92
			vertex 38.0699 -21.5666 -434.672
			vertex 37.9618 -22.0429 -433.745
		endloop
	endfacet 
	facet normal 0.987337 -0.066813 0.104149
		outer loop
			vertex 37.9618 -22.0429 -433.745
			vertex 38.0699 -21.5666 -434.672
			vertex 37.97 -21.3371 -433.412
		endloop
	endfacet 
	facet normal -0.963181 0.23172 0.0693428
		outer loop
			vertex 32.1428 -21.8302 -435.536
			vertex 32.3222 -21.4127 -435.024
			vertex 32.2235 -21.4447 -435.989
		endloop
	endfacet 
	facet normal -0.939366 0.32334 0.0518927
		outer loop
			vertex 32.4563 -20.872 -435.879
			vertex 32.2235 -21.4447 -435.989
			vertex 32.3222 -21.4127 -435.024
		endloop
	endfacet 
	facet normal -0.917105 0.360703 0.136146
		outer loop
			vertex 32.4563 -20.872 -435.879
			vertex 32.3222 -21.4127 -435.024
			vertex 32.6936 -20.7904 -434.433
		endloop
	endfacet 
	facet normal -0.920292 0.288003 0.239085
		outer loop
			vertex 32.6936 -20.7904 -434.433
			vertex 32.3222 -21.4127 -435.024
			vertex 32.6272 -21.5482 -433.8
		endloop
	endfacet 
	facet normal -0.887309 0.199025 0.395515
		outer loop
			vertex 33.0945 -20.9539 -433.04
			vertex 32.6272 -21.5482 -433.8
			vertex 33.1247 -21.7145 -432.59
		endloop
	endfacet 
	facet normal -0.892147 0.305821 0.309936
		outer loop
			vertex 32.6936 -20.7904 -434.433
			vertex 32.6272 -21.5482 -433.8
			vertex 33.0945 -20.9539 -433.04
		endloop
	endfacet 
	facet normal 0.99238 0.0175982 0.0651092
		outer loop
			vertex 38.0699 -21.5666 -434.672
			vertex 38.0535 -20.8799 -434.46
			vertex 37.97 -21.3371 -433.412
		endloop
	endfacet 
	facet normal 0.977657 0.0930309 0.142216
		outer loop
			vertex 37.97 -21.3371 -433.412
			vertex 38.0535 -20.8799 -434.46
			vertex 37.9081 -20.7798 -433.245
		endloop
	endfacet 
	facet normal -0.826703 0.526167 0.155293
		outer loop
			vertex 32.6936 -20.7904 -434.433
			vertex 32.9522 -20.2348 -434.646
			vertex 32.716 -20.4044 -435.358
		endloop
	endfacet 
	facet normal -0.881117 0.446063 0.10705
		outer loop
			vertex 32.4563 -20.872 -435.879
			vertex 32.6936 -20.7904 -434.433
			vertex 32.716 -20.4044 -435.358
		endloop
	endfacet 
	facet normal -0.839509 0.438084 0.294141
		outer loop
			vertex 33.1836 -20.3223 -433.656
			vertex 32.6936 -20.7904 -434.433
			vertex 33.0945 -20.9539 -433.04
		endloop
	endfacet 
	facet normal -0.805668 0.535133 0.220481
		outer loop
			vertex 32.9522 -20.2348 -434.646
			vertex 32.6936 -20.7904 -434.433
			vertex 33.1836 -20.3223 -433.656
		endloop
	endfacet 
	facet normal 0.866673 0.476607 -0.0729187
		outer loop
			vertex 37.9413 -20.4148 -435.022
			vertex 37.6436 -19.9664 -435.329
			vertex 37.8693 -20.1138 -434.492
		endloop
	endfacet 
	facet normal 0.923261 0.367581 0.0133261
		outer loop
			vertex 37.9413 -20.4148 -435.022
			vertex 37.8693 -20.1138 -434.492
			vertex 37.9111 -20.3717 -433.885
		endloop
	endfacet 
	facet normal 0.951432 0.264079 0.0155204
		outer loop
			vertex 37.9413 -20.4148 -435.022
			vertex 37.9111 -20.3717 -433.885
			vertex 38.0535 -20.8799 -434.46
		endloop
	endfacet 
	facet normal 0.957928 0.21684 0.129168
		outer loop
			vertex 38.0535 -20.8799 -434.46
			vertex 37.9111 -20.3717 -433.885
			vertex 37.9081 -20.7798 -433.245
		endloop
	endfacet 
	facet normal -0.739055 0.65269 0.0912326
		outer loop
			vertex 32.716 -20.4044 -435.358
			vertex 32.9522 -20.2348 -434.646
			vertex 33.0658 -20.0247 -435.536
		endloop
	endfacet 
	facet normal -0.707163 0.666686 0.190807
		outer loop
			vertex 32.9522 -20.2348 -434.646
			vertex 33.1836 -20.3223 -433.656
			vertex 33.4011 -19.8849 -434.437
		endloop
	endfacet 
	facet normal -0.659585 0.735079 0.106437
		outer loop
			vertex 32.9522 -20.2348 -434.646
			vertex 33.4011 -19.8849 -434.437
			vertex 33.0658 -20.0247 -435.536
		endloop
	endfacet 
	facet normal -0.567275 0.815796 0.0352359
		outer loop
			vertex 33.0658 -20.0247 -435.536
			vertex 33.4011 -19.8849 -434.437
			vertex 33.7472 -19.6229 -435.728
		endloop
	endfacet 
	facet normal -0.430002 0.892143 0.090551
		outer loop
			vertex 34.2921 -19.2738 -434.96
			vertex 34.0698 -19.5221 -433.987
			vertex 34.6671 -19.1739 -434.191
		endloop
	endfacet 
	facet normal -0.481653 0.870667 0.0406451
		outer loop
			vertex 34.2921 -19.2738 -434.96
			vertex 33.7472 -19.6229 -435.728
			vertex 34.0698 -19.5221 -433.987
		endloop
	endfacet 
	facet normal -0.529407 0.83772 0.0777926
		outer loop
			vertex 33.7472 -19.6229 -435.728
			vertex 33.4011 -19.8849 -434.437
			vertex 34.0698 -19.5221 -433.987
		endloop
	endfacet 
	facet normal -0.304406 0.927633 0.174245
		outer loop
			vertex 34.6671 -19.1739 -434.191
			vertex 34.6952 -19.3846 -433.089
			vertex 35.08 -19.1276 -433.583
		endloop
	endfacet 
	facet normal -0.415398 0.884611 0.177435
		outer loop
			vertex 34.0698 -19.5221 -433.987
			vertex 34.6952 -19.3846 -433.089
			vertex 34.6671 -19.1739 -434.191
		endloop
	endfacet 
	facet normal -0.246911 0.924794 0.250613
		outer loop
			vertex 34.6952 -19.3846 -433.089
			vertex 35.2164 -19.2869 -432.816
			vertex 35.08 -19.1276 -433.583
		endloop
	endfacet 
	facet normal 0.483195 0.858456 -0.102836
		outer loop
			vertex 37.275 -19.5543 -435.573
			vertex 36.8265 -19.3526 -435.846
			vertex 37.0253 -19.3204 -434.803
		endloop
	endfacet 
	facet normal 0.580202 0.802678 -0.00805364
		outer loop
			vertex 37.275 -19.5543 -435.573
			vertex 37.0253 -19.3204 -434.803
			vertex 37.3194 -19.5917 -434.279
		endloop
	endfacet 
	facet normal 0.700112 0.691842 -0.0487739
		outer loop
			vertex 37.6436 -19.9664 -435.329
			vertex 37.275 -19.5543 -435.573
			vertex 37.3194 -19.5917 -434.279
		endloop
	endfacet 
	facet normal 0.737628 0.655084 0.0469823
		outer loop
			vertex 37.6436 -19.9664 -435.329
			vertex 37.3194 -19.5917 -434.279
			vertex 37.641 -19.9814 -433.824
		endloop
	endfacet 
	facet normal 0.744274 0.660462 0.0424851
		outer loop
			vertex 37.6436 -19.9664 -435.329
			vertex 37.641 -19.9814 -433.824
			vertex 37.8693 -20.1138 -434.492
		endloop
	endfacet 
	facet normal 0.828647 0.523552 0.105431
		outer loop
			vertex 37.9111 -20.3717 -433.885
			vertex 37.8693 -20.1138 -434.492
			vertex 37.641 -19.9814 -433.824
		endloop
	endfacet 
	facet normal -0.329853 0.936087 0.0218452
		outer loop
			vertex 34.2921 -19.2738 -434.96
			vertex 34.6671 -19.1739 -434.191
			vertex 34.6792 -19.1315 -435.152
		endloop
	endfacet 
	facet normal -0.19624 0.971587 0.006834
		outer loop
			vertex 35.2083 -19.0717 -434.737
			vertex 34.6792 -19.1315 -435.152
			vertex 34.6671 -19.1739 -434.191
		endloop
	endfacet 
	facet normal -0.185397 0.970665 0.0723494
		outer loop
			vertex 35.08 -19.1276 -433.583
			vertex 35.2083 -19.0717 -434.737
			vertex 34.6671 -19.1739 -434.191
		endloop
	endfacet 
	facet normal -0.0954068 0.964477 0.206104
		outer loop
			vertex 35.08 -19.1276 -433.583
			vertex 35.2164 -19.2869 -432.816
			vertex 35.5779 -19.1152 -433.553
		endloop
	endfacet 
	facet normal -0.0620248 0.986452 0.0877879
		outer loop
			vertex 35.08 -19.1276 -433.583
			vertex 35.5779 -19.1152 -433.553
			vertex 35.2083 -19.0717 -434.737
		endloop
	endfacet 
	facet normal 0.0261259 0.994305 0.03235
		outer loop
			vertex 35.2083 -19.0717 -434.737
			vertex 35.5779 -19.1152 -433.553
			vertex 35.9275 -19.0822 -434.735
		endloop
	endfacet 
	facet normal 0.172123 0.977538 0.0512594
		outer loop
			vertex 36.5605 -19.1725 -434.732
			vertex 35.9275 -19.0822 -434.735
			vertex 36.2003 -19.2039 -433.509
		endloop
	endfacet 
	facet normal 0.109886 0.98281 0.099901
		outer loop
			vertex 35.9275 -19.0822 -434.735
			vertex 35.5779 -19.1152 -433.553
			vertex 36.2003 -19.2039 -433.509
		endloop
	endfacet 
	facet normal 0.357473 0.921873 -0.0611208
		outer loop
			vertex 37.0253 -19.3204 -434.803
			vertex 36.8265 -19.3526 -435.846
			vertex 36.5605 -19.1725 -434.732
		endloop
	endfacet 
	facet normal 0.373666 0.914614 0.064851
		outer loop
			vertex 37.0253 -19.3204 -434.803
			vertex 36.5605 -19.1725 -434.732
			vertex 36.8181 -19.3685 -433.666
		endloop
	endfacet 
	facet normal 0.285169 0.940908 0.121635
		outer loop
			vertex 36.8181 -19.3685 -433.666
			vertex 36.5605 -19.1725 -434.732
			vertex 36.2003 -19.2039 -433.509
		endloop
	endfacet 
	facet normal 0.517582 0.837409 0.0969937
		outer loop
			vertex 37.3194 -19.5917 -434.279
			vertex 37.0253 -19.3204 -434.803
			vertex 36.8181 -19.3685 -433.666
		endloop
	endfacet 
	facet normal 0.212492 -0.906178 0.344176
		outer loop
			vertex 35.9369 -23.8921 -433.673
			vertex 35.861 -23.4003 -432.317
			vertex 35.3855 -23.8911 -433.19
		endloop
	endfacet 
	facet normal 0.306298 -0.881108 0.340853
		outer loop
			vertex 35.9369 -23.8921 -433.673
			vertex 36.4001 -23.5264 -432.991
			vertex 35.861 -23.4003 -432.317
		endloop
	endfacet 
	facet normal -0.38607 -0.697895 0.579727
		outer loop
			vertex 34.5247 -23.3351 -432.258
			vertex 34.3853 -22.5523 -431.425
			vertex 33.8848 -23.0974 -432.33
		endloop
	endfacet 
	facet normal -0.116614 -0.807757 0.558939
		outer loop
			vertex 34.5247 -23.3351 -432.258
			vertex 35.1425 -23.5536 -432.398
			vertex 35.3073 -22.8557 -431.438
		endloop
	endfacet 
	facet normal -0.239054 -0.704917 0.63707
		outer loop
			vertex 34.3853 -22.5523 -431.425
			vertex 34.5247 -23.3351 -432.258
			vertex 35.3073 -22.8557 -431.438
		endloop
	endfacet 
	facet normal 0.099753 -0.88994 0.425302
		outer loop
			vertex 35.1425 -23.5536 -432.398
			vertex 35.3855 -23.8911 -433.19
			vertex 35.861 -23.4003 -432.317
		endloop
	endfacet 
	facet normal 0.0480794 -0.823391 0.538925
		outer loop
			vertex 35.1425 -23.5536 -432.398
			vertex 35.861 -23.4003 -432.317
			vertex 35.3073 -22.8557 -431.438
		endloop
	endfacet 
	facet normal 0.15567 -0.7733 0.58734
		outer loop
			vertex 35.3073 -22.8557 -431.438
			vertex 35.861 -23.4003 -432.317
			vertex 36.117 -22.7428 -431.414
		endloop
	endfacet 
	facet normal 0.473757 -0.801951 0.344341
		outer loop
			vertex 36.4001 -23.5264 -432.991
			vertex 36.9154 -23.3506 -433.377
			vertex 36.6841 -22.9522 -432.166
		endloop
	endfacet 
	facet normal 0.370708 -0.819358 0.414623
		outer loop
			vertex 36.4001 -23.5264 -432.991
			vertex 36.6841 -22.9522 -432.166
			vertex 35.861 -23.4003 -432.317
		endloop
	endfacet 
	facet normal 0.334519 -0.774039 0.515756
		outer loop
			vertex 35.861 -23.4003 -432.317
			vertex 36.6841 -22.9522 -432.166
			vertex 36.117 -22.7428 -431.414
		endloop
	endfacet 
	facet normal 0.599258 -0.752918 0.248823
		outer loop
			vertex 36.9154 -23.3506 -433.377
			vertex 37.409 -23.128 -433.935
			vertex 37.3248 -22.8522 -432.849
		endloop
	endfacet 
	facet normal 0.554346 -0.743843 0.354851
		outer loop
			vertex 36.6841 -22.9522 -432.166
			vertex 36.9154 -23.3506 -433.377
			vertex 37.3248 -22.8522 -432.849
		endloop
	endfacet 
	facet normal 0.672668 -0.68723 0.244999
		outer loop
			vertex 37.409 -23.128 -433.935
			vertex 37.6677 -22.7809 -433.406
			vertex 37.3248 -22.8522 -432.849
		endloop
	endfacet 
	facet normal -0.742315 -0.272228 0.585244
		outer loop
			vertex 33.6472 -22.6401 -432.061
			vertex 33.8112 -21.9119 -431.594
			vertex 33.2309 -22.3716 -432.475
		endloop
	endfacet 
	facet normal -0.517902 -0.582426 0.602364
		outer loop
			vertex 33.6472 -22.6401 -432.061
			vertex 33.8848 -23.0974 -432.33
			vertex 34.3853 -22.5523 -431.425
		endloop
	endfacet 
	facet normal -0.601795 -0.375917 0.657729
		outer loop
			vertex 33.6472 -22.6401 -432.061
			vertex 34.3853 -22.5523 -431.425
			vertex 33.8112 -21.9119 -431.594
		endloop
	endfacet 
	facet normal -0.548993 -0.274765 0.744915
		outer loop
			vertex 33.8112 -21.9119 -431.594
			vertex 34.3853 -22.5523 -431.425
			vertex 34.5583 -21.7725 -430.884
		endloop
	endfacet 
	facet normal -0.198986 -0.568922 0.765076
		outer loop
			vertex 35.3073 -22.8557 -431.438
			vertex 35.1996 -21.9939 -430.745
			vertex 34.3853 -22.5523 -431.425
		endloop
	endfacet 
	facet normal -0.321847 -0.43632 0.821876
		outer loop
			vertex 35.1996 -21.9939 -430.745
			vertex 34.5583 -21.7725 -430.884
			vertex 34.3853 -22.5523 -431.425
		endloop
	endfacet 
	facet normal 0.154869 -0.650277 0.715173
		outer loop
			vertex 36.117 -22.7428 -431.414
			vertex 35.9784 -22.124 -430.839
			vertex 35.3073 -22.8557 -431.438
		endloop
	endfacet 
	facet normal 0.0113253 -0.543433 0.806822
		outer loop
			vertex 35.9784 -22.124 -430.839
			vertex 35.1996 -21.9939 -430.745
			vertex 35.3073 -22.8557 -431.438
		endloop
	endfacet 
	facet normal 0.445573 -0.654467 0.58287
		outer loop
			vertex 36.6841 -22.9522 -432.166
			vertex 36.6801 -22.2224 -431.288
			vertex 36.117 -22.7428 -431.414
		endloop
	endfacet 
	facet normal 0.356296 -0.571649 0.710103
		outer loop
			vertex 36.6801 -22.2224 -431.288
			vertex 35.9784 -22.124 -430.839
			vertex 36.117 -22.7428 -431.414
		endloop
	endfacet 
	facet normal 0.620379 -0.630242 0.436704
		outer loop
			vertex 37.3248 -22.8522 -432.849
			vertex 37.2694 -22.3213 -432.055
			vertex 36.6841 -22.9522 -432.166
		endloop
	endfacet 
	facet normal 0.595737 -0.568243 0.538069
		outer loop
			vertex 37.2694 -22.3213 -432.055
			vertex 36.6801 -22.2224 -431.288
			vertex 36.6841 -22.9522 -432.166
		endloop
	endfacet 
	facet normal 0.851252 -0.438003 0.239689
		outer loop
			vertex 37.6677 -22.7809 -433.406
			vertex 37.8609 -22.5413 -433.677
			vertex 37.695 -22.4021 -432.922
		endloop
	endfacet 
	facet normal 0.753774 -0.551037 0.310316
		outer loop
			vertex 37.6677 -22.7809 -433.406
			vertex 37.695 -22.4021 -432.922
			vertex 37.3248 -22.8522 -432.849
		endloop
	endfacet 
	facet normal 0.746397 -0.503124 0.395993
		outer loop
			vertex 37.3248 -22.8522 -432.849
			vertex 37.695 -22.4021 -432.922
			vertex 37.2694 -22.3213 -432.055
		endloop
	endfacet 
	facet normal 0.925487 -0.284417 0.20676
		outer loop
			vertex 37.8609 -22.5413 -433.677
			vertex 37.9618 -22.0429 -433.745
			vertex 37.695 -22.4021 -432.922
		endloop
	endfacet 
	facet normal -0.795016 0.0942873 0.568298
		outer loop
			vertex 33.8112 -21.9119 -431.594
			vertex 33.6776 -21.0748 -431.926
			vertex 33.1247 -21.7145 -432.59
		endloop
	endfacet 
	facet normal -0.813584 -0.0910059 0.548163
		outer loop
			vertex 33.2309 -22.3716 -432.475
			vertex 33.8112 -21.9119 -431.594
			vertex 33.1247 -21.7145 -432.59
		endloop
	endfacet 
	facet normal -0.626813 0.0417064 0.749057
		outer loop
			vertex 34.5583 -21.7725 -430.884
			vertex 34.3934 -21.1351 -431.097
			vertex 33.8112 -21.9119 -431.594
		endloop
	endfacet 
	facet normal -0.705627 0.166935 0.655355
		outer loop
			vertex 34.3934 -21.1351 -431.097
			vertex 33.6776 -21.0748 -431.926
			vertex 33.8112 -21.9119 -431.594
		endloop
	endfacet 
	facet normal -0.293229 -0.173493 0.907838
		outer loop
			vertex 35.1996 -21.9939 -430.745
			vertex 35.1425 -21.2154 -430.641
			vertex 34.5583 -21.7725 -430.884
		endloop
	endfacet 
	facet normal -0.470473 0.138182 0.840525
		outer loop
			vertex 35.1425 -21.2154 -430.641
			vertex 34.3934 -21.1351 -431.097
			vertex 34.5583 -21.7725 -430.884
		endloop
	endfacet 
	facet normal 0.088092 -0.350974 0.9049
		outer loop
			vertex 35.9784 -22.124 -430.839
			vertex 35.8893 -21.3593 -430.581
			vertex 35.1996 -21.9939 -430.745
		endloop
	endfacet 
	facet normal -0.0707618 -0.118312 0.953925
		outer loop
			vertex 35.8893 -21.3593 -430.581
			vertex 35.1425 -21.2154 -430.641
			vertex 35.1996 -21.9939 -430.745
		endloop
	endfacet 
	facet normal 0.451535 -0.371998 0.771554
		outer loop
			vertex 36.6801 -22.2224 -431.288
			vertex 36.6072 -21.4961 -430.896
			vertex 35.9784 -22.124 -430.839
		endloop
	endfacet 
	facet normal 0.330945 -0.225544 0.877579
		outer loop
			vertex 36.6072 -21.4961 -430.896
			vertex 35.8893 -21.3593 -430.581
			vertex 35.9784 -22.124 -430.839
		endloop
	endfacet 
	facet normal 0.699084 -0.378694 0.57516
		outer loop
			vertex 37.2694 -22.3213 -432.055
			vertex 37.2281 -21.6354 -431.574
			vertex 36.6801 -22.2224 -431.288
		endloop
	endfacet 
	facet normal 0.644159 -0.265266 0.681412
		outer loop
			vertex 37.2281 -21.6354 -431.574
			vertex 36.6072 -21.4961 -430.896
			vertex 36.6801 -22.2224 -431.288
		endloop
	endfacet 
	facet normal 0.84196 -0.327258 0.395992
		outer loop
			vertex 37.695 -22.4021 -432.922
			vertex 37.697 -21.7997 -432.534
			vertex 37.2694 -22.3213 -432.055
		endloop
	endfacet 
	facet normal 0.819289 -0.264825 0.473793
		outer loop
			vertex 37.697 -21.7997 -432.534
			vertex 37.2281 -21.6354 -431.574
			vertex 37.2694 -22.3213 -432.055
		endloop
	endfacet 
	facet normal 0.961176 -0.10815 0.224756
		outer loop
			vertex 37.9618 -22.0429 -433.745
			vertex 37.97 -21.3371 -433.412
			vertex 37.697 -21.7997 -432.534
		endloop
	endfacet 
	facet normal 0.923572 -0.221584 0.277386
		outer loop
			vertex 37.695 -22.4021 -432.922
			vertex 37.9618 -22.0429 -433.745
			vertex 37.697 -21.7997 -432.534
		endloop
	endfacet 
	facet normal -0.779728 0.400409 0.458105
		outer loop
			vertex 33.6776 -21.0748 -431.926
			vertex 33.6389 -20.3891 -432.576
			vertex 33.0945 -20.9539 -433.04
		endloop
	endfacet 
	facet normal -0.835174 0.240556 0.473154
		outer loop
			vertex 33.1247 -21.7145 -432.59
			vertex 33.6776 -21.0748 -431.926
			vertex 33.0945 -20.9539 -433.04
		endloop
	endfacet 
	facet normal -0.648226 0.397792 0.622235
		outer loop
			vertex 34.3934 -21.1351 -431.097
			vertex 34.2962 -20.4148 -431.708
			vertex 33.6776 -21.0748 -431.926
		endloop
	endfacet 
	facet normal -0.68217 0.484998 0.520129
		outer loop
			vertex 34.2962 -20.4148 -431.708
			vertex 33.6389 -20.3891 -432.576
			vertex 33.6776 -21.0748 -431.926
		endloop
	endfacet 
	facet normal -0.409964 0.424678 0.778751
		outer loop
			vertex 35.1425 -21.2154 -430.641
			vertex 35.0561 -20.4803 -431.092
			vertex 34.3934 -21.1351 -431.097
		endloop
	endfacet 
	facet normal -0.498419 0.504317 0.673938
		outer loop
			vertex 35.0561 -20.4803 -431.092
			vertex 34.2962 -20.4148 -431.708
			vertex 34.3934 -21.1351 -431.097
		endloop
	endfacet 
	facet normal -0.0259885 0.300983 0.917666
		outer loop
			vertex 35.8893 -21.3593 -430.581
			vertex 35.8173 -20.6163 -430.824
			vertex 35.1425 -21.2154 -430.641
		endloop
	endfacet 
	facet normal -0.189258 0.51078 0.810074
		outer loop
			vertex 35.8173 -20.6163 -430.824
			vertex 35.0561 -20.4803 -431.092
			vertex 35.1425 -21.2154 -430.641
		endloop
	endfacet 
	facet normal 0.40111 0.0852537 0.865375
		outer loop
			vertex 36.6072 -21.4961 -430.896
			vertex 36.5223 -20.7821 -430.94
			vertex 35.8893 -21.3593 -430.581
		endloop
	endfacet 
	facet normal 0.235591 0.334044 0.869567
		outer loop
			vertex 36.5223 -20.7821 -430.94
			vertex 35.8173 -20.6163 -430.824
			vertex 35.8893 -21.3593 -430.581
		endloop
	endfacet 
	facet normal 0.717888 -0.0307858 0.658019
		outer loop
			vertex 37.2281 -21.6354 -431.574
			vertex 37.1477 -20.9353 -431.478
			vertex 36.6072 -21.4961 -430.896
		endloop
	endfacet 
	facet normal 0.618852 0.131922 0.734718
		outer loop
			vertex 37.1477 -20.9353 -431.478
			vertex 36.5223 -20.7821 -430.94
			vertex 36.6072 -21.4961 -430.896
		endloop
	endfacet 
	facet normal 0.879952 -0.079477 0.439329
		outer loop
			vertex 37.697 -21.7997 -432.534
			vertex 37.6529 -21.1186 -432.328
			vertex 37.2281 -21.6354 -431.574
		endloop
	endfacet 
	facet normal 0.833476 0.0411351 0.517303
		outer loop
			vertex 37.6529 -21.1186 -432.328
			vertex 37.1477 -20.9353 -431.478
			vertex 37.2281 -21.6354 -431.574
		endloop
	endfacet 
	facet normal 0.951663 0.088294 0.265397
		outer loop
			vertex 37.97 -21.3371 -433.412
			vertex 37.9081 -20.7798 -433.245
			vertex 37.6529 -21.1186 -432.328
		endloop
	endfacet 
	facet normal 0.940227 -0.0284752 0.308897
		outer loop
			vertex 37.697 -21.7997 -432.534
			vertex 37.97 -21.3371 -433.412
			vertex 37.6529 -21.1186 -432.328
		endloop
	endfacet 
	facet normal -0.698773 0.623258 0.327241
		outer loop
			vertex 33.6389 -20.3891 -432.576
			vertex 33.6575 -19.9398 -433.354
			vertex 33.1836 -20.3223 -433.656
		endloop
	endfacet 
	facet normal -0.779225 0.491141 0.36467
		outer loop
			vertex 33.0945 -20.9539 -433.04
			vertex 33.6389 -20.3891 -432.576
			vertex 33.1836 -20.3223 -433.656
		endloop
	endfacet 
	facet normal -0.597529 0.640719 0.459155
		outer loop
			vertex 34.2962 -20.4148 -431.708
			vertex 34.1976 -19.8486 -432.648
			vertex 33.6389 -20.3891 -432.576
		endloop
	endfacet 
	facet normal -0.614635 0.688247 0.359701
		outer loop
			vertex 34.1976 -19.8486 -432.648
			vertex 33.6575 -19.9398 -433.354
			vertex 33.6389 -20.3891 -432.576
		endloop
	endfacet 
	facet normal -0.396044 0.676294 0.595174
		outer loop
			vertex 35.0561 -20.4803 -431.092
			vertex 34.9843 -19.766 -432.026
			vertex 34.2962 -20.4148 -431.708
		endloop
	endfacet 
	facet normal -0.461209 0.72549 0.482496
		outer loop
			vertex 34.9843 -19.766 -432.026
			vertex 34.1976 -19.8486 -432.648
			vertex 34.2962 -20.4148 -431.708
		endloop
	endfacet 
	facet normal -0.0846977 0.662868 0.708661
		outer loop
			vertex 35.8173 -20.6163 -430.824
			vertex 35.7504 -19.9405 -431.534
			vertex 35.0561 -20.4803 -431.092
		endloop
	endfacet 
	facet normal -0.203029 0.748743 0.598574
		outer loop
			vertex 35.7504 -19.9405 -431.534
			vertex 34.9843 -19.766 -432.026
			vertex 35.0561 -20.4803 -431.092
		endloop
	endfacet 
	facet normal 0.275563 0.574008 0.734249
		outer loop
			vertex 36.5223 -20.7821 -430.94
			vertex 36.4631 -20.1329 -431.495
			vertex 35.8173 -20.6163 -430.824
		endloop
	endfacet 
	facet normal 0.139163 0.703403 0.661231
		outer loop
			vertex 36.4631 -20.1329 -431.495
			vertex 35.7504 -19.9405 -431.534
			vertex 35.8173 -20.6163 -430.824
		endloop
	endfacet 
	facet normal 0.630567 0.382079 0.636097
		outer loop
			vertex 37.1477 -20.9353 -431.478
			vertex 37.0059 -20.3716 -431.668
			vertex 36.5223 -20.7821 -430.94
		endloop
	endfacet 
	facet normal 0.486389 0.561604 0.630386
		outer loop
			vertex 37.0059 -20.3716 -431.668
			vertex 36.4631 -20.1329 -431.495
			vertex 36.5223 -20.7821 -430.94
		endloop
	endfacet 
	facet normal 0.839145 0.249143 0.443064
		outer loop
			vertex 37.6529 -21.1186 -432.328
			vertex 37.5495 -20.4298 -432.607
			vertex 37.1477 -20.9353 -431.478
		endloop
	endfacet 
	facet normal 0.746976 0.407431 0.486706
		outer loop
			vertex 37.5495 -20.4298 -432.607
			vertex 37.0059 -20.3716 -431.668
			vertex 37.1477 -20.9353 -431.478
		endloop
	endfacet 
	facet normal 0.899683 0.33351 0.238695
		outer loop
			vertex 37.9081 -20.7798 -433.245
			vertex 37.9111 -20.3717 -433.885
			vertex 37.5495 -20.4298 -432.607
		endloop
	endfacet 
	facet normal 0.897057 0.2453 0.32159
		outer loop
			vertex 37.6529 -21.1186 -432.328
			vertex 37.9081 -20.7798 -433.245
			vertex 37.5495 -20.4298 -432.607
		endloop
	endfacet 
	facet normal -0.660551 0.701754 0.227038
		outer loop
			vertex 33.1836 -20.3223 -433.656
			vertex 33.6575 -19.9398 -433.354
			vertex 33.4011 -19.8849 -434.437
		endloop
	endfacet 
	facet normal -0.575105 0.792072 0.185224
		outer loop
			vertex 34.0698 -19.5221 -433.987
			vertex 33.4011 -19.8849 -434.437
			vertex 33.6575 -19.9398 -433.354
		endloop
	endfacet 
	facet normal -0.549401 0.783636 0.267668
		outer loop
			vertex 34.1976 -19.8486 -432.648
			vertex 34.0698 -19.5221 -433.987
			vertex 33.6575 -19.9398 -433.354
		endloop
	endfacet 
	facet normal -0.480183 0.826866 0.270091
		outer loop
			vertex 34.6952 -19.3846 -433.089
			vertex 34.0698 -19.5221 -433.987
			vertex 34.1976 -19.8486 -432.648
		endloop
	endfacet 
	facet normal -0.409098 0.816247 0.385465
		outer loop
			vertex 34.9843 -19.766 -432.026
			vertex 34.6952 -19.3846 -433.089
			vertex 34.1976 -19.8486 -432.648
		endloop
	endfacet 
	facet normal -0.286818 0.871154 0.369178
		outer loop
			vertex 35.2164 -19.2869 -432.816
			vertex 34.6952 -19.3846 -433.089
			vertex 34.9843 -19.766 -432.026
		endloop
	endfacet 
	facet normal -0.131515 0.889084 0.402989
		outer loop
			vertex 35.2164 -19.2869 -432.816
			vertex 34.9843 -19.766 -432.026
			vertex 35.7052 -19.4088 -432.496
		endloop
	endfacet 
	facet normal -0.0762388 0.849719 0.486999
		outer loop
			vertex 35.7052 -19.4088 -432.496
			vertex 34.9843 -19.766 -432.026
			vertex 35.7504 -19.9405 -431.534
		endloop
	endfacet 
	facet normal 0.223154 0.810084 0.509998
		outer loop
			vertex 36.4631 -20.1329 -431.495
			vertex 36.3767 -19.5774 -432.424
			vertex 35.7504 -19.9405 -431.534
		endloop
	endfacet 
	facet normal 0.126083 0.870525 0.445853
		outer loop
			vertex 36.3767 -19.5774 -432.424
			vertex 35.7052 -19.4088 -432.496
			vertex 35.7504 -19.9405 -431.534
		endloop
	endfacet 
	facet normal 0.523541 0.684611 0.471658
		outer loop
			vertex 37.0059 -20.3716 -431.668
			vertex 37.0848 -19.8502 -432.726
			vertex 36.4631 -20.1329 -431.495
		endloop
	endfacet 
	facet normal 0.412256 0.787721 0.423626
		outer loop
			vertex 37.0848 -19.8502 -432.726
			vertex 36.3767 -19.5774 -432.424
			vertex 36.4631 -20.1329 -431.495
		endloop
	endfacet 
	facet normal 0.656458 0.720006 0.19289
		outer loop
			vertex 37.641 -19.9814 -433.824
			vertex 37.3194 -19.5917 -434.279
			vertex 37.0848 -19.8502 -432.726
		endloop
	endfacet 
	facet normal 0.708063 0.624476 0.277296
		outer loop
			vertex 37.641 -19.9814 -433.824
			vertex 37.0848 -19.8502 -432.726
			vertex 37.5495 -20.4298 -432.607
		endloop
	endfacet 
	facet normal 0.68043 0.588797 0.397099
		outer loop
			vertex 37.5495 -20.4298 -432.607
			vertex 37.0848 -19.8502 -432.726
			vertex 37.0059 -20.3716 -431.668
		endloop
	endfacet 
	facet normal 0.822197 0.493624 0.217393
		outer loop
			vertex 37.9111 -20.3717 -433.885
			vertex 37.641 -19.9814 -433.824
			vertex 37.5495 -20.4298 -432.607
		endloop
	endfacet 
	facet normal -0.0157517 0.947906 0.284671
		outer loop
			vertex 35.2164 -19.2869 -432.816
			vertex 35.7052 -19.4088 -432.496
			vertex 35.5779 -19.1152 -433.553
		endloop
	endfacet 
	facet normal 0.101391 0.958387 0.233906
		outer loop
			vertex 36.2003 -19.2039 -433.509
			vertex 35.5779 -19.1152 -433.553
			vertex 35.7052 -19.4088 -432.496
		endloop
	endfacet 
	facet normal 0.187949 0.92037 0.311078
		outer loop
			vertex 36.3767 -19.5774 -432.424
			vertex 36.2003 -19.2039 -433.509
			vertex 35.7052 -19.4088 -432.496
		endloop
	endfacet 
	facet normal 0.309489 0.908163 0.247448
		outer loop
			vertex 36.8181 -19.3685 -433.666
			vertex 36.2003 -19.2039 -433.509
			vertex 36.3767 -19.5774 -432.424
		endloop
	endfacet 
	facet normal 0.436726 0.835955 0.295852
		outer loop
			vertex 37.0848 -19.8502 -432.726
			vertex 36.8181 -19.3685 -433.666
			vertex 36.3767 -19.5774 -432.424
		endloop
	endfacet 
	facet normal 0.556322 0.791494 0.202181
		outer loop
			vertex 37.3194 -19.5917 -434.279
			vertex 36.8181 -19.3685 -433.666
			vertex 37.0848 -19.8502 -432.726
		endloop
	endfacet 
endsolid lymph_node_3
