solid lymph_node_2
	facet normal -0.173232 -0.931426 -0.283413
		outer loop
			vertex 38.6588 -25.4873 -413.016
			vertex 38.3599 -25.8071 -411.659
			vertex 37.9728 -25.5893 -412.512
		endloop
	endfacet 
	facet normal -0.0681581 -0.925712 -0.341821
		outer loop
			vertex 38.6588 -25.4873 -413.016
			vertex 39.5312 -25.5457 -413.083
			vertex 39.1666 -25.839 -412.095
		endloop
	endfacet 
	facet normal -0.126096 -0.953733 -0.227586
		outer loop
			vertex 38.3599 -25.8071 -411.659
			vertex 38.6588 -25.4873 -413.016
			vertex 39.1666 -25.839 -412.095
		endloop
	endfacet 
	facet normal 0.125764 -0.914621 -0.355775
		outer loop
			vertex 39.5312 -25.5457 -413.083
			vertex 40.2686 -25.5318 -412.856
			vertex 39.8003 -25.8191 -412.324
		endloop
	endfacet 
	facet normal 0.00955778 -0.951055 -0.278864
		outer loop
			vertex 39.1666 -25.839 -412.095
			vertex 39.5312 -25.5457 -413.083
			vertex 39.8003 -25.8191 -412.324
		endloop
	endfacet 
	facet normal 0.315252 -0.892732 -0.292469
		outer loop
			vertex 40.2686 -25.5318 -412.856
			vertex 40.9323 -25.4683 -412.319
			vertex 40.3462 -25.7953 -411.982
		endloop
	endfacet 
	facet normal 0.19666 -0.932843 -0.268505
		outer loop
			vertex 39.8003 -25.8191 -412.324
			vertex 40.2686 -25.5318 -412.856
			vertex 40.3462 -25.7953 -411.982
		endloop
	endfacet 
	facet normal 0.355076 -0.907457 -0.179102
		outer loop
			vertex 40.3462 -25.7953 -411.982
			vertex 40.9323 -25.4683 -412.319
			vertex 40.8488 -25.6811 -411.592
		endloop
	endfacet 
	facet normal -0.700118 -0.549669 -0.431366
		outer loop
			vertex 37.9523 -25.0612 -413.279
			vertex 37.6541 -25.4769 -412.547
			vertex 37.4093 -25.2534 -412.387
		endloop
	endfacet 
	facet normal -0.2897 -0.834645 -0.438879
		outer loop
			vertex 37.9728 -25.5893 -412.512
			vertex 37.6541 -25.4769 -412.547
			vertex 37.9523 -25.0612 -413.279
		endloop
	endfacet 
	facet normal -0.273748 -0.824533 -0.452631
		outer loop
			vertex 37.9728 -25.5893 -412.512
			vertex 37.9523 -25.0612 -413.279
			vertex 38.6588 -25.4873 -413.016
		endloop
	endfacet 
	facet normal -0.289124 -0.753253 -0.560159
		outer loop
			vertex 38.6588 -25.4873 -413.016
			vertex 37.9523 -25.0612 -413.279
			vertex 38.6904 -24.9179 -413.943
		endloop
	endfacet 
	facet normal -0.0398942 -0.856054 -0.495565
		outer loop
			vertex 39.5312 -25.5457 -413.083
			vertex 38.6588 -25.4873 -413.016
			vertex 39.3538 -25.0189 -413.926
		endloop
	endfacet 
	facet normal -0.136171 -0.789523 -0.572202
		outer loop
			vertex 39.3538 -25.0189 -413.926
			vertex 38.6588 -25.4873 -413.016
			vertex 38.6904 -24.9179 -413.943
		endloop
	endfacet 
	facet normal 0.187953 -0.845895 -0.475402
		outer loop
			vertex 40.2686 -25.5318 -412.856
			vertex 39.5312 -25.5457 -413.083
			vertex 40.1558 -25.0376 -413.719
		endloop
	endfacet 
	facet normal 0.100011 -0.812671 -0.552234
		outer loop
			vertex 40.1558 -25.0376 -413.719
			vertex 39.5312 -25.5457 -413.083
			vertex 39.3538 -25.0189 -413.926
		endloop
	endfacet 
	facet normal 0.389115 -0.819975 -0.399888
		outer loop
			vertex 40.9323 -25.4683 -412.319
			vertex 40.2686 -25.5318 -412.856
			vertex 40.9389 -25.0051 -413.214
		endloop
	endfacet 
	facet normal 0.332711 -0.79136 -0.49555
		outer loop
			vertex 40.9389 -25.0051 -413.214
			vertex 40.2686 -25.5318 -412.856
			vertex 40.1558 -25.0376 -413.719
		endloop
	endfacet 
	facet normal 0.421026 -0.886739 -0.1558
		outer loop
			vertex 41.4667 -25.3718 -411.558
			vertex 40.8488 -25.6811 -411.592
			vertex 40.9323 -25.4683 -412.319
		endloop
	endfacet 
	facet normal 0.471611 -0.826877 -0.267373
		outer loop
			vertex 41.4667 -25.3718 -411.558
			vertex 40.9323 -25.4683 -412.319
			vertex 41.6965 -24.9446 -412.409
		endloop
	endfacet 
	facet normal 0.479522 -0.774838 -0.398093
		outer loop
			vertex 41.6965 -24.9446 -412.409
			vertex 40.9323 -25.4683 -412.319
			vertex 40.9389 -25.0051 -413.214
		endloop
	endfacet 
	facet normal 0.498086 -0.817924 -0.24923
		outer loop
			vertex 41.4667 -25.3718 -411.558
			vertex 41.6965 -24.9446 -412.409
			vertex 41.9768 -25.095 -411.708
		endloop
	endfacet 
	facet normal -0.928937 -0.186106 -0.279612
		outer loop
			vertex 37.4084 -24.536 -412.907
			vertex 37.1349 -24.9586 -412.012
			vertex 37.0479 -24.3932 -411.929
		endloop
	endfacet 
	facet normal -0.861976 -0.331937 -0.339408
		outer loop
			vertex 37.4093 -25.2534 -412.387
			vertex 37.1349 -24.9586 -412.012
			vertex 37.4084 -24.536 -412.907
		endloop
	endfacet 
	facet normal -0.771343 -0.390299 -0.466256
		outer loop
			vertex 37.4093 -25.2534 -412.387
			vertex 37.4084 -24.536 -412.907
			vertex 37.9523 -25.0612 -413.279
		endloop
	endfacet 
	facet normal -0.752756 -0.297508 -0.564841
		outer loop
			vertex 37.9523 -25.0612 -413.279
			vertex 37.4084 -24.536 -412.907
			vertex 37.933 -24.2853 -413.825
		endloop
	endfacet 
	facet normal -0.421511 -0.563481 -0.68318
		outer loop
			vertex 38.6904 -24.9179 -413.943
			vertex 37.9523 -25.0612 -413.279
			vertex 38.5077 -24.342 -414.274
		endloop
	endfacet 
	facet normal -0.576074 -0.409224 -0.677362
		outer loop
			vertex 38.5077 -24.342 -414.274
			vertex 37.9523 -25.0612 -413.279
			vertex 37.933 -24.2853 -413.825
		endloop
	endfacet 
	facet normal -0.117831 -0.661308 -0.717179
		outer loop
			vertex 39.3538 -25.0189 -413.926
			vertex 38.6904 -24.9179 -413.943
			vertex 39.2526 -24.3431 -414.535
		endloop
	endfacet 
	facet normal -0.277795 -0.531767 -0.770755
		outer loop
			vertex 39.2526 -24.3431 -414.535
			vertex 38.6904 -24.9179 -413.943
			vertex 38.5077 -24.342 -414.274
		endloop
	endfacet 
	facet normal 0.166279 -0.706208 -0.668392
		outer loop
			vertex 40.1558 -25.0376 -413.719
			vertex 39.3538 -25.0189 -413.926
			vertex 40.0545 -24.361 -414.438
		endloop
	endfacet 
	facet normal 0.0447154 -0.621376 -0.756702
		outer loop
			vertex 40.0545 -24.361 -414.438
			vertex 39.3538 -25.0189 -413.926
			vertex 39.2526 -24.3431 -414.535
		endloop
	endfacet 
	facet normal 0.396055 -0.696759 -0.581468
		outer loop
			vertex 40.9389 -25.0051 -413.214
			vertex 40.1558 -25.0376 -413.719
			vertex 40.8751 -24.3518 -414.03
		endloop
	endfacet 
	facet normal 0.317566 -0.644832 -0.677478
		outer loop
			vertex 40.8751 -24.3518 -414.03
			vertex 40.1558 -25.0376 -413.719
			vertex 40.0545 -24.361 -414.438
		endloop
	endfacet 
	facet normal 0.539424 -0.682675 -0.479057
		outer loop
			vertex 41.6965 -24.9446 -412.409
			vertex 40.9389 -25.0051 -413.214
			vertex 41.6533 -24.3129 -413.347
		endloop
	endfacet 
	facet normal 0.51236 -0.633212 -0.566769
		outer loop
			vertex 41.6533 -24.3129 -413.347
			vertex 40.9389 -25.0051 -413.214
			vertex 40.8751 -24.3518 -414.03
		endloop
	endfacet 
	facet normal 0.58929 -0.736016 -0.306553
		outer loop
			vertex 42.3223 -24.7342 -411.822
			vertex 41.9768 -25.095 -411.708
			vertex 41.6965 -24.9446 -412.409
		endloop
	endfacet 
	facet normal 0.655293 -0.635091 -0.382501
		outer loop
			vertex 42.3223 -24.7342 -411.822
			vertex 41.6965 -24.9446 -412.409
			vertex 42.3564 -24.23 -412.526
		endloop
	endfacet 
	facet normal 0.62207 -0.610255 -0.473208
		outer loop
			vertex 42.3564 -24.23 -412.526
			vertex 41.6965 -24.9446 -412.409
			vertex 41.6533 -24.3129 -413.347
		endloop
	endfacet 
	facet normal 0.737328 -0.573245 -0.33714
		outer loop
			vertex 42.3223 -24.7342 -411.822
			vertex 42.3564 -24.23 -412.526
			vertex 42.6544 -24.3217 -411.92
		endloop
	endfacet 
	facet normal -0.926149 -0.0800525 -0.330952
		outer loop
			vertex 37.2534 -23.7333 -412.686
			vertex 37.4084 -24.536 -412.907
			vertex 37.0479 -24.3932 -411.929
		endloop
	endfacet 
	facet normal -0.967794 -0.0074654 -0.219688
		outer loop
			vertex 36.9908 -23.6864 -411.689
			vertex 37.2534 -23.7333 -412.686
			vertex 37.0479 -24.3932 -411.929
		endloop
	endfacet 
	facet normal -0.806434 -0.125701 -0.553031
		outer loop
			vertex 37.933 -24.2853 -413.825
			vertex 37.4084 -24.536 -412.907
			vertex 37.7537 -23.6728 -413.634
		endloop
	endfacet 
	facet normal -0.874101 -0.03206 -0.460808
		outer loop
			vertex 37.7537 -23.6728 -413.634
			vertex 37.4084 -24.536 -412.907
			vertex 37.2534 -23.7333 -412.686
		endloop
	endfacet 
	facet normal -0.607295 -0.202178 -0.739747
		outer loop
			vertex 38.5077 -24.342 -414.274
			vertex 37.933 -24.2853 -413.825
			vertex 38.399 -23.5986 -414.363
		endloop
	endfacet 
	facet normal -0.726168 -0.0525 -0.66144
		outer loop
			vertex 38.399 -23.5986 -414.363
			vertex 37.933 -24.2853 -413.825
			vertex 37.7537 -23.6728 -413.634
		endloop
	endfacet 
	facet normal -0.291426 -0.337862 -0.864946
		outer loop
			vertex 39.2526 -24.3431 -414.535
			vertex 38.5077 -24.342 -414.274
			vertex 39.1456 -23.5822 -414.775
		endloop
	endfacet 
	facet normal -0.466363 -0.16253 -0.839756
		outer loop
			vertex 39.1456 -23.5822 -414.775
			vertex 38.5077 -24.342 -414.274
			vertex 38.399 -23.5986 -414.363
		endloop
	endfacet 
	facet normal 0.0749 -0.452255 -0.8649
		outer loop
			vertex 40.0545 -24.361 -414.438
			vertex 39.2526 -24.3431 -414.535
			vertex 39.9613 -23.58 -414.856
		endloop
	endfacet 
	facet normal -0.101277 -0.298282 -0.919568
		outer loop
			vertex 39.9613 -23.58 -414.856
			vertex 39.2526 -24.3431 -414.535
			vertex 39.1456 -23.5822 -414.775
		endloop
	endfacet 
	facet normal 0.371873 -0.508376 -0.758515
		outer loop
			vertex 40.8751 -24.3518 -414.03
			vertex 40.0545 -24.361 -414.438
			vertex 40.7901 -23.5818 -414.591
		endloop
	endfacet 
	facet normal 0.250772 -0.400631 -0.857627
		outer loop
			vertex 40.7901 -23.5818 -414.591
			vertex 40.0545 -24.361 -414.438
			vertex 39.9613 -23.58 -414.856
		endloop
	endfacet 
	facet normal 0.568894 -0.513702 -0.627979
		outer loop
			vertex 41.6533 -24.3129 -413.347
			vertex 40.8751 -24.3518 -414.03
			vertex 41.5755 -23.5768 -414.022
		endloop
	endfacet 
	facet normal 0.506896 -0.440793 -0.723715
		outer loop
			vertex 41.5755 -23.5768 -414.022
			vertex 40.8751 -24.3518 -414.03
			vertex 40.7901 -23.5818 -414.591
		endloop
	endfacet 
	facet normal 0.696953 -0.477786 -0.520338
		outer loop
			vertex 42.3564 -24.23 -412.526
			vertex 41.6533 -24.3129 -413.347
			vertex 42.25 -23.5655 -413.246
		endloop
	endfacet 
	facet normal 0.67084 -0.430696 -0.587396
		outer loop
			vertex 42.25 -23.5655 -413.246
			vertex 41.6533 -24.3129 -413.347
			vertex 41.5755 -23.5768 -414.022
		endloop
	endfacet 
	facet normal 0.796661 -0.461158 -0.357795
		outer loop
			vertex 42.7691 -23.9895 -412.086
			vertex 42.6544 -24.3217 -411.92
			vertex 42.3564 -24.23 -412.526
		endloop
	endfacet 
	facet normal 0.833532 -0.343647 -0.397857
		outer loop
			vertex 42.7691 -23.9895 -412.086
			vertex 42.3564 -24.23 -412.526
			vertex 42.7172 -23.5608 -412.444
		endloop
	endfacet 
	facet normal 0.793881 -0.353153 -0.46598
		outer loop
			vertex 42.7172 -23.5608 -412.444
			vertex 42.3564 -24.23 -412.526
			vertex 42.25 -23.5655 -413.246
		endloop
	endfacet 
	facet normal 0.928257 -0.201893 -0.260836
		outer loop
			vertex 42.7691 -23.9895 -412.086
			vertex 42.7172 -23.5608 -412.444
			vertex 42.8938 -23.6734 -411.725
		endloop
	endfacet 
	facet normal -0.949997 0.0827148 -0.268764
		outer loop
			vertex 37.1932 -23.0311 -412.284
			vertex 37.2534 -23.7333 -412.686
			vertex 36.9908 -23.6864 -411.689
		endloop
	endfacet 
	facet normal -0.969625 0.116664 -0.1675
		outer loop
			vertex 37.0014 -23.0462 -411.426
			vertex 37.1932 -23.0311 -412.284
			vertex 36.9908 -23.6864 -411.689
		endloop
	endfacet 
	facet normal -0.861958 0.127961 -0.470194
		outer loop
			vertex 37.7537 -23.6728 -413.634
			vertex 37.2534 -23.7333 -412.686
			vertex 37.6547 -22.9287 -413.21
		endloop
	endfacet 
	facet normal -0.896209 0.170149 -0.389414
		outer loop
			vertex 37.6547 -22.9287 -413.21
			vertex 37.2534 -23.7333 -412.686
			vertex 37.1932 -23.0311 -412.284
		endloop
	endfacet 
	facet normal -0.716615 0.130452 -0.66181
		outer loop
			vertex 38.399 -23.5986 -414.363
			vertex 37.7537 -23.6728 -413.634
			vertex 38.302 -22.8406 -414.061
		endloop
	endfacet 
	facet normal -0.784738 0.217272 -0.562788
		outer loop
			vertex 38.302 -22.8406 -414.061
			vertex 37.7537 -23.6728 -413.634
			vertex 37.6547 -22.9287 -413.21
		endloop
	endfacet 
	facet normal -0.46341 0.0553795 -0.85675
		outer loop
			vertex 39.1456 -23.5822 -414.775
			vertex 38.399 -23.5986 -414.363
			vertex 39.0554 -22.7874 -414.652
		endloop
	endfacet 
	facet normal -0.594788 0.198684 -0.757111
		outer loop
			vertex 39.0554 -22.7874 -414.652
			vertex 38.399 -23.5986 -414.363
			vertex 38.302 -22.8406 -414.061
		endloop
	endfacet 
	facet normal -0.0996725 -0.0799304 -0.962929
		outer loop
			vertex 39.9613 -23.58 -414.856
			vertex 39.1456 -23.5822 -414.775
			vertex 39.865 -22.7727 -414.911
		endloop
	endfacet 
	facet normal -0.286868 0.0983994 -0.925301
		outer loop
			vertex 39.865 -22.7727 -414.911
			vertex 39.1456 -23.5822 -414.775
			vertex 39.0554 -22.7874 -414.652
		endloop
	endfacet 
	facet normal 0.278838 -0.207373 -0.91403
		outer loop
			vertex 40.7901 -23.5818 -414.591
			vertex 39.9613 -23.58 -414.856
			vertex 40.6851 -22.7771 -414.815
		endloop
	endfacet 
	facet normal 0.104571 -0.0406449 -0.964664
		outer loop
			vertex 40.6851 -22.7771 -414.815
			vertex 39.9613 -23.58 -414.856
			vertex 39.865 -22.7727 -414.911
		endloop
	endfacet 
	facet normal 0.551334 -0.275635 -0.768678
		outer loop
			vertex 41.5755 -23.5768 -414.022
			vertex 40.7901 -23.5818 -414.591
			vertex 41.4695 -22.7914 -414.388
		endloop
	endfacet 
	facet normal 0.444378 -0.149959 -0.859882
		outer loop
			vertex 41.4695 -22.7914 -414.388
			vertex 40.7901 -23.5818 -414.591
			vertex 40.6851 -22.7771 -414.815
		endloop
	endfacet 
	facet normal 0.726189 -0.285038 -0.610226
		outer loop
			vertex 42.25 -23.5655 -413.246
			vertex 41.5755 -23.5768 -414.022
			vertex 42.1535 -22.8228 -413.705
		endloop
	endfacet 
	facet normal 0.66868 -0.202885 -0.695773
		outer loop
			vertex 42.1535 -22.8228 -413.705
			vertex 41.5755 -23.5768 -414.022
			vertex 41.4695 -22.7914 -414.388
		endloop
	endfacet 
	facet normal 0.862905 -0.211891 -0.43693
		outer loop
			vertex 42.7172 -23.5608 -412.444
			vertex 42.25 -23.5655 -413.246
			vertex 42.6519 -22.8806 -412.85
		endloop
	endfacet 
	facet normal 0.821326 -0.190865 -0.514118
		outer loop
			vertex 42.6519 -22.8806 -412.85
			vertex 42.25 -23.5655 -413.246
			vertex 42.1535 -22.8228 -413.705
		endloop
	endfacet 
	facet normal 0.963341 -0.10115 -0.1842
		outer loop
			vertex 42.8922 -23.0427 -411.927
			vertex 42.8938 -23.6734 -411.725
			vertex 42.7172 -23.5608 -412.444
		endloop
	endfacet 
	facet normal 0.93764 -0.101641 -0.292171
		outer loop
			vertex 42.6519 -22.8806 -412.85
			vertex 42.8922 -23.0427 -411.927
			vertex 42.7172 -23.5608 -412.444
		endloop
	endfacet 
	facet normal -0.946385 0.217409 -0.200311
		outer loop
			vertex 37.1932 -23.0311 -412.284
			vertex 37.0014 -23.0462 -411.426
			vertex 37.1748 -22.5617 -411.846
		endloop
	endfacet 
	facet normal -0.866802 0.406584 -0.257289
		outer loop
			vertex 37.1748 -22.5617 -411.846
			vertex 37.3596 -22.075 -411.681
			vertex 37.5892 -22.2375 -412.513
		endloop
	endfacet 
	facet normal -0.885427 0.316034 -0.311577
		outer loop
			vertex 37.1748 -22.5617 -411.846
			vertex 37.5892 -22.2375 -412.513
			vertex 37.1932 -23.0311 -412.284
		endloop
	endfacet 
	facet normal -0.854879 0.302723 -0.399416
		outer loop
			vertex 37.1932 -23.0311 -412.284
			vertex 37.5892 -22.2375 -412.513
			vertex 37.6547 -22.9287 -413.21
		endloop
	endfacet 
	facet normal -0.739737 0.365541 -0.547121
		outer loop
			vertex 38.302 -22.8406 -414.061
			vertex 37.6547 -22.9287 -413.21
			vertex 38.2447 -22.1146 -413.456
		endloop
	endfacet 
	facet normal -0.775627 0.408804 -0.46453
		outer loop
			vertex 38.2447 -22.1146 -413.456
			vertex 37.6547 -22.9287 -413.21
			vertex 37.5892 -22.2375 -412.513
		endloop
	endfacet 
	facet normal -0.560455 0.370369 -0.719298
		outer loop
			vertex 39.0554 -22.7874 -414.652
			vertex 38.302 -22.8406 -414.061
			vertex 38.9826 -22.0411 -414.184
		endloop
	endfacet 
	facet normal -0.637281 0.450406 -0.60833
		outer loop
			vertex 38.9826 -22.0411 -414.184
			vertex 38.302 -22.8406 -414.061
			vertex 38.2447 -22.1146 -413.456
		endloop
	endfacet 
	facet normal -0.270451 0.308839 -0.883771
		outer loop
			vertex 39.865 -22.7727 -414.911
			vertex 39.0554 -22.7874 -414.652
			vertex 39.7733 -22.0143 -414.603
		endloop
	endfacet 
	facet normal -0.41266 0.437504 -0.777407
		outer loop
			vertex 39.7733 -22.0143 -414.603
			vertex 39.0554 -22.7874 -414.652
			vertex 38.9826 -22.0411 -414.184
		endloop
	endfacet 
	facet normal 0.109516 0.183587 -0.947122
		outer loop
			vertex 40.6851 -22.7771 -414.815
			vertex 39.865 -22.7727 -414.911
			vertex 40.559 -22.0315 -414.695
		endloop
	endfacet 
	facet normal -0.0783112 0.354741 -0.903858
		outer loop
			vertex 40.559 -22.0315 -414.695
			vertex 39.865 -22.7727 -414.911
			vertex 39.7733 -22.0143 -414.603
		endloop
	endfacet 
	facet normal 0.467082 0.0646597 -0.855721
		outer loop
			vertex 41.4695 -22.7914 -414.388
			vertex 40.6851 -22.7771 -414.815
			vertex 41.3115 -22.0474 -414.421
		endloop
	endfacet 
	facet normal 0.306487 0.231478 -0.892328
		outer loop
			vertex 41.3115 -22.0474 -414.421
			vertex 40.6851 -22.7771 -414.815
			vertex 40.559 -22.0315 -414.695
		endloop
	endfacet 
	facet normal 0.693568 -0.00709335 -0.695831
		outer loop
			vertex 42.1535 -22.8228 -413.705
			vertex 41.4695 -22.7914 -414.388
			vertex 42.0078 -22.0934 -413.866
		endloop
	endfacet 
	facet normal 0.598926 0.134776 -0.764577
		outer loop
			vertex 42.0078 -22.0934 -413.866
			vertex 41.4695 -22.7914 -414.388
			vertex 41.3115 -22.0474 -414.421
		endloop
	endfacet 
	facet normal 0.858913 -0.0555838 -0.489185
		outer loop
			vertex 42.6519 -22.8806 -412.85
			vertex 42.1535 -22.8228 -413.705
			vertex 42.5463 -22.1917 -413.156
		endloop
	endfacet 
	facet normal 0.788664 0.0460351 -0.585351
		outer loop
			vertex 42.5463 -22.1917 -413.156
			vertex 42.1535 -22.8228 -413.705
			vertex 42.0078 -22.0934 -413.866
		endloop
	endfacet 
	facet normal 0.96707 -0.0101561 -0.202983
		outer loop
			vertex 42.8352 -22.272 -412.197
			vertex 42.8922 -23.0427 -411.927
			vertex 42.6519 -22.8806 -412.85
		endloop
	endfacet 
	facet normal 0.929922 0.0148757 -0.322808
		outer loop
			vertex 42.5463 -22.1917 -413.156
			vertex 42.8352 -22.272 -412.197
			vertex 42.6519 -22.8806 -412.85
		endloop
	endfacet 
	facet normal -0.804675 0.503306 -0.283855
		outer loop
			vertex 37.6972 -21.7063 -412.034
			vertex 37.5892 -22.2375 -412.513
			vertex 37.3596 -22.075 -411.681
		endloop
	endfacet 
	facet normal -0.797636 0.562604 -0.173004
		outer loop
			vertex 37.5877 -21.6459 -411.427
			vertex 37.6972 -21.7063 -412.034
			vertex 37.3596 -22.075 -411.681
		endloop
	endfacet 
	facet normal -0.703643 0.549219 -0.425804
		outer loop
			vertex 38.2447 -22.1146 -413.456
			vertex 37.5892 -22.2375 -412.513
			vertex 38.2479 -21.4897 -412.618
		endloop
	endfacet 
	facet normal -0.718828 0.581839 -0.35416
		outer loop
			vertex 38.2479 -21.4897 -412.618
			vertex 37.5892 -22.2375 -412.513
			vertex 37.6972 -21.7063 -412.034
		endloop
	endfacet 
	facet normal -0.576661 0.58158 -0.555907
		outer loop
			vertex 38.9826 -22.0411 -414.184
			vertex 38.2447 -22.1146 -413.456
			vertex 38.9414 -21.4163 -413.469
		endloop
	endfacet 
	facet normal -0.607133 0.637129 -0.455973
		outer loop
			vertex 38.9414 -21.4163 -413.469
			vertex 38.2447 -22.1146 -413.456
			vertex 38.2479 -21.4897 -412.618
		endloop
	endfacet 
	facet normal -0.358212 0.594578 -0.69642
		outer loop
			vertex 39.7733 -22.0143 -414.603
			vertex 38.9826 -22.0411 -414.184
			vertex 39.685 -21.3757 -413.99
		endloop
	endfacet 
	facet normal -0.445387 0.658617 -0.585889
		outer loop
			vertex 39.685 -21.3757 -413.99
			vertex 38.9826 -22.0411 -414.184
			vertex 38.9414 -21.4163 -413.469
		endloop
	endfacet 
	facet normal -0.0543187 0.552773 -0.799811
		outer loop
			vertex 40.559 -22.0315 -414.695
			vertex 39.7733 -22.0143 -414.603
			vertex 40.4545 -21.3968 -414.22
		endloop
	endfacet 
	facet normal -0.192011 0.663945 -0.698737
		outer loop
			vertex 40.4545 -21.3968 -414.22
			vertex 39.7733 -22.0143 -414.603
			vertex 39.685 -21.3757 -413.99
		endloop
	endfacet 
	facet normal 0.303354 0.443865 -0.812518
		outer loop
			vertex 41.3115 -22.0474 -414.421
			vertex 40.559 -22.0315 -414.695
			vertex 41.0881 -21.5036 -414.234
		endloop
	endfacet 
	facet normal 0.130376 0.594006 -0.763265
		outer loop
			vertex 41.0881 -21.5036 -414.234
			vertex 40.559 -22.0315 -414.695
			vertex 40.4545 -21.3968 -414.22
		endloop
	endfacet 
	facet normal 0.579927 0.377669 -0.68303
		outer loop
			vertex 42.0078 -22.0934 -413.866
			vertex 41.3115 -22.0474 -414.421
			vertex 41.7512 -21.4166 -413.649
		endloop
	endfacet 
	facet normal 0.444951 0.51994 -0.694365
		outer loop
			vertex 41.7512 -21.4166 -413.649
			vertex 41.3115 -22.0474 -414.421
			vertex 41.0881 -21.5036 -414.234
		endloop
	endfacet 
	facet normal 0.779842 0.243635 -0.539704
		outer loop
			vertex 42.5463 -22.1917 -413.156
			vertex 42.0078 -22.0934 -413.866
			vertex 42.3813 -21.624 -413.156
		endloop
	endfacet 
	facet normal 0.656182 0.45221 -0.564234
		outer loop
			vertex 42.3813 -21.624 -413.156
			vertex 42.0078 -22.0934 -413.866
			vertex 41.7512 -21.4166 -413.649
		endloop
	endfacet 
	facet normal 0.939221 0.120817 -0.274499
		outer loop
			vertex 42.7146 -21.7869 -412.659
			vertex 42.8352 -22.272 -412.197
			vertex 42.5463 -22.1917 -413.156
		endloop
	endfacet 
	facet normal 0.850611 0.273238 -0.401595
		outer loop
			vertex 42.3813 -21.624 -413.156
			vertex 42.7146 -21.7869 -412.659
			vertex 42.5463 -22.1917 -413.156
		endloop
	endfacet 
	facet normal -0.691882 0.68028 -0.175012
		outer loop
			vertex 37.6972 -21.7063 -412.034
			vertex 37.5877 -21.6459 -411.427
			vertex 37.9772 -21.3575 -411.753
		endloop
	endfacet 
	facet normal -0.635862 0.707069 -0.274795
		outer loop
			vertex 38.2479 -21.4897 -412.618
			vertex 37.6972 -21.7063 -412.034
			vertex 37.9772 -21.3575 -411.753
		endloop
	endfacet 
	facet normal -0.535548 0.803746 -0.199639
		outer loop
			vertex 38.5559 -21.0742 -411.937
			vertex 38.2479 -21.4897 -412.618
			vertex 37.9772 -21.3575 -411.753
		endloop
	endfacet 
	facet normal -0.405233 0.896779 -0.108422
		outer loop
			vertex 38.5559 -21.0742 -411.937
			vertex 39.1161 -20.8254 -412.05
			vertex 38.9806 -20.9903 -412.701
		endloop
	endfacet 
	facet normal -0.502634 0.814164 -0.236641
		outer loop
			vertex 38.5559 -21.0742 -411.937
			vertex 38.9806 -20.9903 -412.701
			vertex 38.2479 -21.4897 -412.618
		endloop
	endfacet 
	facet normal -0.529092 0.749692 -0.37558
		outer loop
			vertex 38.2479 -21.4897 -412.618
			vertex 38.9806 -20.9903 -412.701
			vertex 38.9414 -21.4163 -413.469
		endloop
	endfacet 
	facet normal -0.358738 0.776117 -0.492554
		outer loop
			vertex 39.685 -21.3757 -413.99
			vertex 38.9414 -21.4163 -413.469
			vertex 39.5893 -20.93 -413.216
		endloop
	endfacet 
	facet normal -0.41197 0.811642 -0.382181
		outer loop
			vertex 39.5893 -20.93 -413.216
			vertex 38.9414 -21.4163 -413.469
			vertex 38.9806 -20.9903 -412.701
		endloop
	endfacet 
	facet normal -0.12471 0.797012 -0.561582
		outer loop
			vertex 40.4545 -21.3968 -414.22
			vertex 39.685 -21.3757 -413.99
			vertex 40.3146 -20.9235 -413.47
		endloop
	endfacet 
	facet normal -0.204262 0.845145 -0.465931
		outer loop
			vertex 40.3146 -20.9235 -413.47
			vertex 39.685 -21.3757 -413.99
			vertex 39.5893 -20.93 -413.216
		endloop
	endfacet 
	facet normal 0.161605 0.749583 -0.607619
		outer loop
			vertex 41.0881 -21.5036 -414.234
			vertex 40.4545 -21.3968 -414.22
			vertex 41.1176 -21.006 -413.511
		endloop
	endfacet 
	facet normal 0.0442111 0.841416 -0.50701
		outer loop
			vertex 41.1176 -21.006 -413.511
			vertex 40.4545 -21.3968 -414.22
			vertex 40.3146 -20.9235 -413.47
		endloop
	endfacet 
	facet normal 0.525161 0.762894 -0.323005
		outer loop
			vertex 41.6962 -20.9812 -412.958
			vertex 42.1676 -21.2315 -412.668
			vertex 41.7512 -21.4166 -413.649
		endloop
	endfacet 
	facet normal 0.405437 0.785344 -0.415169
		outer loop
			vertex 41.6962 -20.9812 -412.958
			vertex 41.7512 -21.4166 -413.649
			vertex 41.1176 -21.006 -413.511
		endloop
	endfacet 
	facet normal 0.350274 0.714704 -0.567366
		outer loop
			vertex 41.1176 -21.006 -413.511
			vertex 41.7512 -21.4166 -413.649
			vertex 41.0881 -21.5036 -414.234
		endloop
	endfacet 
	facet normal 0.586472 0.692393 -0.376848
		outer loop
			vertex 42.3813 -21.624 -413.156
			vertex 41.7512 -21.4166 -413.649
			vertex 42.1676 -21.2315 -412.668
		endloop
	endfacet 
	facet normal 0.667035 0.671889 -0.243548
		outer loop
			vertex 42.5714 -21.4829 -412.454
			vertex 42.3813 -21.624 -413.156
			vertex 42.1676 -21.2315 -412.668
		endloop
	endfacet 
	facet normal 0.774421 0.529369 -0.272917
		outer loop
			vertex 42.7146 -21.7869 -412.659
			vertex 42.3813 -21.624 -413.156
			vertex 42.5714 -21.4829 -412.454
		endloop
	endfacet 
	facet normal -0.332819 0.920046 -0.127994
		outer loop
			vertex 38.9806 -20.9903 -412.701
			vertex 39.1161 -20.8254 -412.05
			vertex 39.4876 -20.7395 -412.525
		endloop
	endfacet 
	facet normal -0.313098 0.899382 -0.262813
		outer loop
			vertex 39.5893 -20.93 -413.216
			vertex 38.9806 -20.9903 -412.701
			vertex 39.4876 -20.7395 -412.525
		endloop
	endfacet 
	facet normal -0.176129 0.947865 -0.210153
		outer loop
			vertex 40.0701 -20.6991 -412.604
			vertex 39.5893 -20.93 -413.216
			vertex 39.4876 -20.7395 -412.525
		endloop
	endfacet 
	facet normal -0.120526 0.929154 -0.302897
		outer loop
			vertex 40.3146 -20.9235 -413.47
			vertex 39.5893 -20.93 -413.216
			vertex 40.0701 -20.6991 -412.604
		endloop
	endfacet 
	facet normal -0.0144571 0.964307 -0.218786
		outer loop
			vertex 40.7877 -20.712 -412.697
			vertex 40.3146 -20.9235 -413.47
			vertex 40.0701 -20.6991 -412.604
		endloop
	endfacet 
	facet normal 0.0707283 0.924702 -0.327248
		outer loop
			vertex 41.1176 -21.006 -413.511
			vertex 40.3146 -20.9235 -413.47
			vertex 40.7877 -20.712 -412.697
		endloop
	endfacet 
	facet normal 0.180834 0.938482 -0.232418
		outer loop
			vertex 41.3576 -20.7765 -412.674
			vertex 41.1176 -21.006 -413.511
			vertex 40.7877 -20.712 -412.697
		endloop
	endfacet 
	facet normal 0.318127 0.891036 -0.272954
		outer loop
			vertex 41.6962 -20.9812 -412.958
			vertex 41.1176 -21.006 -413.511
			vertex 41.3576 -20.7765 -412.674
		endloop
	endfacet 
	facet normal -0.444412 -0.873997 0.0854182
		outer loop
			vertex 37.6339 -25.6302 -411.76
			vertex 37.9448 -25.6988 -410.716
			vertex 37.4738 -25.5399 -410.891
		endloop
	endfacet 
	facet normal -0.271379 -0.928985 -0.176563
		outer loop
			vertex 37.6339 -25.6302 -411.76
			vertex 37.9728 -25.5893 -412.512
			vertex 38.3599 -25.8071 -411.659
		endloop
	endfacet 
	facet normal -0.30288 -0.934854 -0.00199277
		outer loop
			vertex 37.6339 -25.6302 -411.76
			vertex 38.3599 -25.8071 -411.659
			vertex 37.9448 -25.6988 -410.716
		endloop
	endfacet 
	facet normal -0.194587 -0.963784 0.0944468
		outer loop
			vertex 37.9448 -25.6988 -410.716
			vertex 38.3599 -25.8071 -411.659
			vertex 38.5203 -25.8037 -410.525
		endloop
	endfacet 
	facet normal -0.0755362 -0.987273 -0.0533863
		outer loop
			vertex 39.1666 -25.839 -412.095
			vertex 39.087 -25.8745 -410.92
			vertex 38.3599 -25.8071 -411.659
		endloop
	endfacet 
	facet normal -0.0930066 -0.984397 0.0676951
		outer loop
			vertex 38.3599 -25.8071 -411.659
			vertex 39.087 -25.8745 -410.92
			vertex 38.5203 -25.8037 -410.525
		endloop
	endfacet 
	facet normal 0.0213822 -0.983046 -0.118838
		outer loop
			vertex 39.8003 -25.8191 -412.324
			vertex 39.8368 -25.89 -411.345
			vertex 39.1666 -25.839 -412.095
		endloop
	endfacet 
	facet normal -0.00577351 -0.991243 -0.00759599
		outer loop
			vertex 39.1666 -25.839 -412.095
			vertex 39.8368 -25.89 -411.345
			vertex 39.087 -25.8745 -410.92
		endloop
	endfacet 
	facet normal 0.175969 -0.966552 0.131245
		outer loop
			vertex 40.4731 -25.8139 -411.261
			vertex 40.3574 -25.7169 -410.647
			vertex 39.8368 -25.89 -411.345
		endloop
	endfacet 
	facet normal 0.183377 -0.972882 -0.017377
		outer loop
			vertex 40.4731 -25.8139 -411.261
			vertex 39.8368 -25.89 -411.345
			vertex 40.3462 -25.7953 -411.982
		endloop
	endfacet 
	facet normal 0.126043 -0.974212 -0.118287
		outer loop
			vertex 40.3462 -25.7953 -411.982
			vertex 39.8368 -25.89 -411.345
			vertex 39.8003 -25.8191 -412.324
		endloop
	endfacet 
	facet normal 0.293817 -0.946238 -0.0542278
		outer loop
			vertex 40.3462 -25.7953 -411.982
			vertex 40.8488 -25.6811 -411.592
			vertex 40.4731 -25.8139 -411.261
		endloop
	endfacet 
	facet normal -0.876402 -0.421417 0.100663
		outer loop
			vertex 37.2355 -25.3435 -411.487
			vertex 37.2744 -25.2418 -410.679
			vertex 37.0739 -24.8873 -411.172
		endloop
	endfacet 
	facet normal -0.742561 -0.616923 0.130572
		outer loop
			vertex 37.4738 -25.5399 -410.891
			vertex 37.2744 -25.2418 -410.679
			vertex 37.2355 -25.3435 -411.487
		endloop
	endfacet 
	facet normal -0.601088 -0.770947 0.00847475
		outer loop
			vertex 37.6339 -25.6302 -411.76
			vertex 37.4738 -25.5399 -410.891
			vertex 37.2355 -25.3435 -411.487
		endloop
	endfacet 
	facet normal -0.683242 -0.659542 -0.165291
		outer loop
			vertex 37.6339 -25.6302 -411.76
			vertex 37.2355 -25.3435 -411.487
			vertex 37.4093 -25.2534 -412.387
		endloop
	endfacet 
	facet normal -0.618517 -0.707362 -0.252959
		outer loop
			vertex 37.6339 -25.6302 -411.76
			vertex 37.4093 -25.2534 -412.387
			vertex 37.6541 -25.4769 -412.547
		endloop
	endfacet 
	facet normal -0.368047 -0.882065 -0.249938
		outer loop
			vertex 37.9728 -25.5893 -412.512
			vertex 37.6339 -25.6302 -411.76
			vertex 37.6541 -25.4769 -412.547
		endloop
	endfacet 
	facet normal 0.282536 -0.933262 0.189519
		outer loop
			vertex 40.4731 -25.8139 -411.261
			vertex 41.0141 -25.5232 -410.805
			vertex 40.3574 -25.7169 -410.647
		endloop
	endfacet 
	facet normal 0.341314 -0.926717 0.0768024
		outer loop
			vertex 40.8488 -25.6811 -411.592
			vertex 41.0141 -25.5232 -410.805
			vertex 40.4731 -25.8139 -411.261
		endloop
	endfacet 
	facet normal 0.404492 -0.902517 0.0189961
		outer loop
			vertex 40.8488 -25.6811 -411.592
			vertex 41.4667 -25.3718 -411.558
			vertex 41.0141 -25.5232 -410.805
		endloop
	endfacet 
	facet normal 0.423589 -0.885517 0.112103
		outer loop
			vertex 41.4667 -25.3718 -411.558
			vertex 41.6453 -25.258 -410.844
			vertex 41.0141 -25.5232 -410.805
		endloop
	endfacet 
	facet normal 0.574249 -0.798241 -0.0833616
		outer loop
			vertex 41.9768 -25.095 -411.708
			vertex 42.2063 -24.9978 -411.481
			vertex 41.9913 -25.1324 -411.22
		endloop
	endfacet 
	facet normal 0.495131 -0.851884 -0.0874993
		outer loop
			vertex 41.9768 -25.095 -411.708
			vertex 41.9913 -25.1324 -411.22
			vertex 41.4667 -25.3718 -411.558
		endloop
	endfacet 
	facet normal 0.475091 -0.866261 0.0671355
		outer loop
			vertex 41.4667 -25.3718 -411.558
			vertex 41.9913 -25.1324 -411.22
			vertex 41.6453 -25.258 -410.844
		endloop
	endfacet 
	facet normal 0.658562 -0.735696 0.0367185
		outer loop
			vertex 41.9913 -25.1324 -411.22
			vertex 42.2063 -24.9978 -411.481
			vertex 42.3398 -24.817 -411.2
		endloop
	endfacet 
	facet normal -0.920633 -0.33758 -0.0611701
		outer loop
			vertex 37.1349 -24.9586 -412.012
			vertex 37.2355 -25.3435 -411.487
			vertex 37.0739 -24.8873 -411.172
		endloop
	endfacet 
	facet normal -0.964003 -0.190418 -0.101005
		outer loop
			vertex 37.1349 -24.9586 -412.012
			vertex 37.0739 -24.8873 -411.172
			vertex 37.0479 -24.3932 -411.929
		endloop
	endfacet 
	facet normal -0.980522 -0.129739 0.0154698
		outer loop
			vertex 37.0479 -24.3932 -411.929
			vertex 37.0739 -24.8873 -411.172
			vertex 37.0198 -24.2311 -410.913
		endloop
	endfacet 
	facet normal -0.845007 -0.455916 -0.203906
		outer loop
			vertex 37.4093 -25.2534 -412.387
			vertex 37.2355 -25.3435 -411.487
			vertex 37.1349 -24.9586 -412.012
		endloop
	endfacet 
	facet normal 0.632405 -0.734392 -0.203445
		outer loop
			vertex 41.9768 -25.095 -411.708
			vertex 42.3223 -24.7342 -411.822
			vertex 42.2063 -24.9978 -411.481
		endloop
	endfacet 
	facet normal 0.857028 -0.477829 -0.0886343
		outer loop
			vertex 42.6544 -24.3217 -411.92
			vertex 42.8293 -24.0958 -411.658
			vertex 42.6393 -24.4279 -411.404
		endloop
	endfacet 
	facet normal 0.781341 -0.579496 -0.163761
		outer loop
			vertex 42.3223 -24.7342 -411.822
			vertex 42.6544 -24.3217 -411.92
			vertex 42.6393 -24.4279 -411.404
		endloop
	endfacet 
	facet normal 0.772171 -0.607281 -0.0389956
		outer loop
			vertex 42.3223 -24.7342 -411.822
			vertex 42.6393 -24.4279 -411.404
			vertex 42.3398 -24.817 -411.2
		endloop
	endfacet 
	facet normal 0.716718 -0.671847 -0.0833653
		outer loop
			vertex 42.3223 -24.7342 -411.822
			vertex 42.3398 -24.817 -411.2
			vertex 42.2063 -24.9978 -411.481
		endloop
	endfacet 
	facet normal 0.907494 -0.378902 0.0699358
		outer loop
			vertex 42.6393 -24.4279 -411.404
			vertex 42.8293 -24.0958 -411.658
			vertex 42.7871 -23.9891 -411.137
		endloop
	endfacet 
	facet normal -0.9871 -0.0528404 -0.0518729
		outer loop
			vertex 37.0479 -24.3932 -411.929
			vertex 37.0198 -24.2311 -410.913
			vertex 36.9908 -23.6864 -411.689
		endloop
	endfacet 
	facet normal -0.98815 -0.0197032 0.06143
		outer loop
			vertex 37.0198 -24.2311 -410.913
			vertex 37.0037 -23.5177 -410.774
			vertex 36.9908 -23.6864 -411.689
		endloop
	endfacet 
	facet normal 0.872994 -0.402043 -0.21512
		outer loop
			vertex 42.6544 -24.3217 -411.92
			vertex 42.7691 -23.9895 -412.086
			vertex 42.8293 -24.0958 -411.658
		endloop
	endfacet 
	facet normal 0.940239 -0.249695 -0.14936
		outer loop
			vertex 42.8293 -24.0958 -411.658
			vertex 42.7691 -23.9895 -412.086
			vertex 42.8938 -23.6734 -411.725
		endloop
	endfacet 
	facet normal 0.958206 -0.230896 0.0335779
		outer loop
			vertex 42.8293 -24.0958 -411.658
			vertex 42.8938 -23.6734 -411.725
			vertex 42.7871 -23.9891 -411.137
		endloop
	endfacet 
	facet normal 0.971025 -0.12995 0.119904
		outer loop
			vertex 42.7871 -23.9891 -411.137
			vertex 42.8938 -23.6734 -411.725
			vertex 42.8417 -23.3722 -411.058
		endloop
	endfacet 
	facet normal -0.988471 0.0596207 -0.00512196
		outer loop
			vertex 36.9908 -23.6864 -411.689
			vertex 37.0037 -23.5177 -410.774
			vertex 37.0014 -23.0462 -411.426
		endloop
	endfacet 
	facet normal -0.976328 0.124434 0.102998
		outer loop
			vertex 37.0037 -23.5177 -410.774
			vertex 37.0539 -22.9504 -410.749
			vertex 37.0014 -23.0462 -411.426
		endloop
	endfacet 
	facet normal 0.988142 -0.0480051 0.0136016
		outer loop
			vertex 42.8938 -23.6734 -411.725
			vertex 42.8922 -23.0427 -411.927
			vertex 42.8417 -23.3722 -411.058
		endloop
	endfacet 
	facet normal 0.984728 0.010769 0.0898069
		outer loop
			vertex 42.8417 -23.3722 -411.058
			vertex 42.8922 -23.0427 -411.927
			vertex 42.8486 -22.6536 -411.182
		endloop
	endfacet 
	facet normal -0.959207 0.235564 0.0643949
		outer loop
			vertex 37.0014 -23.0462 -411.426
			vertex 37.0539 -22.9504 -410.749
			vertex 37.134 -22.5096 -411.179
		endloop
	endfacet 
	facet normal -0.94811 0.271497 -0.0765361
		outer loop
			vertex 37.1748 -22.5617 -411.846
			vertex 37.0014 -23.0462 -411.426
			vertex 37.134 -22.5096 -411.179
		endloop
	endfacet 
	facet normal -0.909941 0.377676 -0.106429
		outer loop
			vertex 37.134 -22.5096 -411.179
			vertex 37.3596 -22.075 -411.681
			vertex 37.1748 -22.5617 -411.846
		endloop
	endfacet 
	facet normal -0.88938 0.430596 0.02583
		outer loop
			vertex 37.393 -22.0147 -410.979
			vertex 37.3596 -22.075 -411.681
			vertex 37.134 -22.5096 -411.179
		endloop
	endfacet 
	facet normal 0.843734 0.381199 0.331435
		outer loop
			vertex 42.753 -22.0095 -411.337
			vertex 42.4747 -21.955 -410.631
			vertex 42.6477 -22.3883 -410.558
		endloop
	endfacet 
	facet normal 0.928115 0.226197 0.249197
		outer loop
			vertex 42.753 -22.0095 -411.337
			vertex 42.6477 -22.3883 -410.558
			vertex 42.8486 -22.6536 -411.182
		endloop
	endfacet 
	facet normal 0.96157 0.17387 0.0802479
		outer loop
			vertex 42.753 -22.0095 -411.337
			vertex 42.8486 -22.6536 -411.182
			vertex 42.8352 -22.272 -412.197
		endloop
	endfacet 
	facet normal 0.989357 0.0491092 -0.0188064
		outer loop
			vertex 42.8352 -22.272 -412.197
			vertex 42.8486 -22.6536 -411.182
			vertex 42.8922 -23.0427 -411.927
		endloop
	endfacet 
	facet normal -0.839203 0.518802 -0.0141798
		outer loop
			vertex 37.3596 -22.075 -411.681
			vertex 37.393 -22.0147 -410.979
			vertex 37.5877 -21.6459 -411.427
		endloop
	endfacet 
	facet normal -0.794661 0.572661 0.121549
		outer loop
			vertex 37.393 -22.0147 -410.979
			vertex 37.6315 -21.6413 -410.921
			vertex 37.5877 -21.6459 -411.427
		endloop
	endfacet 
	facet normal 0.130889 0.890623 0.415082
		outer loop
			vertex 41.1259 -21.0096 -410.937
			vertex 40.4056 -21.0624 -410.509
			vertex 40.6848 -21.3802 -409.935
		endloop
	endfacet 
	facet normal 0.338789 0.834811 0.407654
		outer loop
			vertex 41.1259 -21.0096 -410.937
			vertex 41.3078 -21.5535 -409.973
			vertex 41.778 -21.2625 -410.886
		endloop
	endfacet 
	facet normal 0.237509 0.836792 0.47173
		outer loop
			vertex 40.6848 -21.3802 -409.935
			vertex 41.3078 -21.5535 -409.973
			vertex 41.1259 -21.0096 -410.937
		endloop
	endfacet 
	facet normal 0.542943 0.745721 0.353253
		outer loop
			vertex 41.778 -21.2625 -410.886
			vertex 41.9925 -21.7612 -410.267
			vertex 42.3674 -21.4648 -411.522
		endloop
	endfacet 
	facet normal 0.445656 0.750357 0.466795
		outer loop
			vertex 41.3078 -21.5535 -409.973
			vertex 41.9925 -21.7612 -410.267
			vertex 41.778 -21.2625 -410.886
		endloop
	endfacet 
	facet normal 0.637569 0.652374 0.375647
		outer loop
			vertex 42.4747 -21.955 -410.631
			vertex 42.3674 -21.4648 -411.522
			vertex 41.9925 -21.7612 -410.267
		endloop
	endfacet 
	facet normal 0.756544 0.553217 0.271559
		outer loop
			vertex 42.4747 -21.955 -410.631
			vertex 42.753 -22.0095 -411.337
			vertex 42.3674 -21.4648 -411.522
		endloop
	endfacet 
	facet normal 0.811315 0.519155 0.152433
		outer loop
			vertex 42.753 -22.0095 -411.337
			vertex 42.7484 -21.7269 -412.055
			vertex 42.3674 -21.4648 -411.522
		endloop
	endfacet 
	facet normal 0.94635 0.245682 -0.115709
		outer loop
			vertex 42.8352 -22.272 -412.197
			vertex 42.7146 -21.7869 -412.659
			vertex 42.7484 -21.7269 -412.055
		endloop
	endfacet 
	facet normal 0.944081 0.268236 0.0358828
		outer loop
			vertex 42.753 -22.0095 -411.337
			vertex 42.8352 -22.272 -412.197
			vertex 42.7484 -21.7269 -412.055
		endloop
	endfacet 
	facet normal -0.698305 0.6862 0.0881062
		outer loop
			vertex 37.5877 -21.6459 -411.427
			vertex 37.6315 -21.6413 -410.921
			vertex 37.8144 -21.407 -411.202
		endloop
	endfacet 
	facet normal -0.637092 0.750017 -0.0496306
		outer loop
			vertex 37.9772 -21.3575 -411.753
			vertex 37.5877 -21.6459 -411.427
			vertex 37.8144 -21.407 -411.202
		endloop
	endfacet 
	facet normal -0.443828 0.879833 -0.0242902
		outer loop
			vertex 38.5559 -21.0742 -411.937
			vertex 37.9772 -21.3575 -411.753
			vertex 38.2163 -21.2326 -411.202
		endloop
	endfacet 
	facet normal -0.489353 0.852893 0.0259359
		outer loop
			vertex 37.9772 -21.3575 -411.753
			vertex 37.8144 -21.407 -411.202
			vertex 38.2163 -21.2326 -411.202
		endloop
	endfacet 
	facet normal -0.227163 0.954808 0.139069
		outer loop
			vertex 39.1161 -20.8254 -412.05
			vertex 38.9329 -21.0413 -411.157
			vertex 39.6435 -20.7504 -411.791
		endloop
	endfacet 
	facet normal -0.334996 0.926051 0.0674913
		outer loop
			vertex 39.1161 -20.8254 -412.05
			vertex 38.5559 -21.0742 -411.937
			vertex 38.9329 -21.0413 -411.157
		endloop
	endfacet 
	facet normal -0.340678 0.919523 0.114622
		outer loop
			vertex 38.5559 -21.0742 -411.937
			vertex 38.2163 -21.2326 -411.202
			vertex 38.9329 -21.0413 -411.157
		endloop
	endfacet 
	facet normal -0.0703459 0.966122 0.220841
		outer loop
			vertex 39.6435 -20.7504 -411.791
			vertex 39.7336 -21.0261 -410.746
			vertex 40.4507 -20.7568 -411.607
		endloop
	endfacet 
	facet normal -0.158518 0.949402 0.248909
		outer loop
			vertex 38.9329 -21.0413 -411.157
			vertex 39.7336 -21.0261 -410.746
			vertex 39.6435 -20.7504 -411.791
		endloop
	endfacet 
	facet normal -0.0273346 0.946149 0.301145
		outer loop
			vertex 40.4056 -21.0624 -410.509
			vertex 40.4507 -20.7568 -411.607
			vertex 39.7336 -21.0261 -410.746
		endloop
	endfacet 
	facet normal 0.0895749 0.941453 0.293847
		outer loop
			vertex 40.4056 -21.0624 -410.509
			vertex 41.1259 -21.0096 -410.937
			vertex 40.4507 -20.7568 -411.607
		endloop
	endfacet 
	facet normal 0.146426 0.958735 0.204843
		outer loop
			vertex 41.1259 -21.0096 -410.937
			vertex 41.1462 -20.7398 -411.99
			vertex 40.4507 -20.7568 -411.607
		endloop
	endfacet 
	facet normal 0.376574 0.876285 0.259155
		outer loop
			vertex 41.778 -21.2625 -410.886
			vertex 41.7345 -20.9673 -411.961
			vertex 41.1259 -21.0096 -410.937
		endloop
	endfacet 
	facet normal 0.290353 0.925904 0.183436
		outer loop
			vertex 41.7345 -20.9673 -411.961
			vertex 41.1462 -20.7398 -411.99
			vertex 41.1259 -21.0096 -410.937
		endloop
	endfacet 
	facet normal 0.494976 0.846676 -0.103272
		outer loop
			vertex 42.1676 -21.2315 -412.668
			vertex 41.6962 -20.9812 -412.958
			vertex 41.7345 -20.9673 -411.961
		endloop
	endfacet 
	facet normal 0.549153 0.81363 0.0524443
		outer loop
			vertex 42.1676 -21.2315 -412.668
			vertex 41.7345 -20.9673 -411.961
			vertex 42.3674 -21.4648 -411.522
		endloop
	endfacet 
	facet normal 0.508279 0.820382 0.221086
		outer loop
			vertex 42.3674 -21.4648 -411.522
			vertex 41.7345 -20.9673 -411.961
			vertex 41.778 -21.2625 -410.886
		endloop
	endfacet 
	facet normal 0.635789 0.750282 -0.0181482
		outer loop
			vertex 42.5714 -21.4829 -412.454
			vertex 42.1676 -21.2315 -412.668
			vertex 42.3674 -21.4648 -411.522
		endloop
	endfacet 
	facet normal 0.707605 0.685996 0.0673005
		outer loop
			vertex 42.7484 -21.7269 -412.055
			vertex 42.5714 -21.4829 -412.454
			vertex 42.3674 -21.4648 -411.522
		endloop
	endfacet 
	facet normal 0.840719 0.479364 -0.104708
		outer loop
			vertex 42.7146 -21.7869 -412.659
			vertex 42.5714 -21.4829 -412.454
			vertex 42.7484 -21.7269 -412.055
		endloop
	endfacet 
	facet normal -0.217898 0.965537 0.00999106
		outer loop
			vertex 39.1161 -20.8254 -412.05
			vertex 39.6435 -20.7504 -411.791
			vertex 39.4876 -20.7395 -412.525
		endloop
	endfacet 
	facet normal -0.125509 0.980967 -0.0342714
		outer loop
			vertex 40.0701 -20.6991 -412.604
			vertex 39.4876 -20.7395 -412.525
			vertex 39.6435 -20.7504 -411.791
		endloop
	endfacet 
	facet normal -0.0466018 0.986957 0.0667389
		outer loop
			vertex 40.4507 -20.7568 -411.607
			vertex 40.0701 -20.6991 -412.604
			vertex 39.6435 -20.7504 -411.791
		endloop
	endfacet 
	facet normal 0.00884689 0.989008 -0.025032
		outer loop
			vertex 40.7877 -20.712 -412.697
			vertex 40.0701 -20.6991 -412.604
			vertex 40.4507 -20.7568 -411.607
		endloop
	endfacet 
	facet normal 0.0866611 0.983324 0.0515932
		outer loop
			vertex 41.1462 -20.7398 -411.99
			vertex 40.7877 -20.712 -412.697
			vertex 40.4507 -20.7568 -411.607
		endloop
	endfacet 
	facet normal 0.173463 0.972402 -0.0473317
		outer loop
			vertex 41.3576 -20.7765 -412.674
			vertex 40.7877 -20.712 -412.697
			vertex 41.1462 -20.7398 -411.99
		endloop
	endfacet 
	facet normal 0.305431 0.93802 0.0328925
		outer loop
			vertex 41.7345 -20.9673 -411.961
			vertex 41.3576 -20.7765 -412.674
			vertex 41.1462 -20.7398 -411.99
		endloop
	endfacet 
	facet normal 0.39831 0.895317 -0.0907145
		outer loop
			vertex 41.6962 -20.9812 -412.958
			vertex 41.3576 -20.7765 -412.674
			vertex 41.7345 -20.9673 -411.961
		endloop
	endfacet 
	facet normal -0.4855 -0.805284 0.269826
		outer loop
			vertex 37.9448 -25.6988 -410.716
			vertex 37.7264 -25.2903 -409.976
			vertex 37.4738 -25.5399 -410.891
		endloop
	endfacet 
	facet normal -0.225016 -0.92223 0.274774
		outer loop
			vertex 37.9448 -25.6988 -410.716
			vertex 38.5203 -25.8037 -410.525
			vertex 38.4007 -25.507 -409.754
		endloop
	endfacet 
	facet normal -0.374398 -0.824588 0.362742
		outer loop
			vertex 37.7264 -25.2903 -409.976
			vertex 37.9448 -25.6988 -410.716
			vertex 38.4007 -25.507 -409.754
		endloop
	endfacet 
	facet normal -0.0337796 -0.963311 0.226644
		outer loop
			vertex 38.5203 -25.8037 -410.525
			vertex 39.087 -25.8745 -410.92
			vertex 39.0925 -25.6175 -409.858
		endloop
	endfacet 
	facet normal -0.111325 -0.918547 0.342496
		outer loop
			vertex 38.4007 -25.507 -409.754
			vertex 38.5203 -25.8037 -410.525
			vertex 39.0925 -25.6175 -409.858
		endloop
	endfacet 
	facet normal 0.066405 -0.97599 0.157001
		outer loop
			vertex 39.087 -25.8745 -410.92
			vertex 39.8368 -25.89 -411.345
			vertex 39.804 -25.6768 -410.24
		endloop
	endfacet 
	facet normal 0.0558692 -0.950935 0.27016
		outer loop
			vertex 39.0925 -25.6175 -409.858
			vertex 39.087 -25.8745 -410.92
			vertex 39.804 -25.6768 -410.24
		endloop
	endfacet 
	facet normal 0.140714 -0.956651 0.214182
		outer loop
			vertex 39.8368 -25.89 -411.345
			vertex 40.3574 -25.7169 -410.647
			vertex 39.804 -25.6768 -410.24
		endloop
	endfacet 
	facet normal -0.899669 -0.311657 0.246989
		outer loop
			vertex 37.2744 -25.2418 -410.679
			vertex 37.3291 -24.7024 -410.092
			vertex 37.0739 -24.8873 -411.172
		endloop
	endfacet 
	facet normal -0.661903 -0.652137 0.297708
		outer loop
			vertex 37.2744 -25.2418 -410.679
			vertex 37.4738 -25.5399 -410.891
			vertex 37.7264 -25.2903 -409.976
		endloop
	endfacet 
	facet normal -0.766975 -0.466537 0.37102
		outer loop
			vertex 37.2744 -25.2418 -410.679
			vertex 37.7264 -25.2903 -409.976
			vertex 37.3291 -24.7024 -410.092
		endloop
	endfacet 
	facet normal -0.713561 -0.439585 0.488756
		outer loop
			vertex 37.3291 -24.7024 -410.092
			vertex 37.7264 -25.2903 -409.976
			vertex 37.832 -24.7483 -409.268
		endloop
	endfacet 
	facet normal -0.387061 -0.723688 0.532979
		outer loop
			vertex 38.4007 -25.507 -409.754
			vertex 38.3623 -24.9686 -409.049
			vertex 37.7264 -25.2903 -409.976
		endloop
	endfacet 
	facet normal -0.534084 -0.56774 0.589498
		outer loop
			vertex 38.3623 -24.9686 -409.049
			vertex 37.832 -24.7483 -409.268
			vertex 37.7264 -25.2903 -409.976
		endloop
	endfacet 
	facet normal -0.0745015 -0.844949 0.49843
		outer loop
			vertex 39.0925 -25.6175 -409.858
			vertex 39.0869 -25.1074 -409.019
			vertex 38.4007 -25.507 -409.754
		endloop
	endfacet 
	facet normal -0.200855 -0.747732 0.600945
		outer loop
			vertex 39.0869 -25.1074 -409.019
			vertex 38.3623 -24.9686 -409.049
			vertex 38.4007 -25.507 -409.754
		endloop
	endfacet 
	facet normal 0.12844 -0.886301 0.422509
		outer loop
			vertex 39.804 -25.6768 -410.24
			vertex 39.8697 -25.1864 -409.282
			vertex 39.0925 -25.6175 -409.858
		endloop
	endfacet 
	facet normal 0.0756147 -0.82508 0.534928
		outer loop
			vertex 39.8697 -25.1864 -409.282
			vertex 39.0869 -25.1074 -409.019
			vertex 39.0925 -25.6175 -409.858
		endloop
	endfacet 
	facet normal 0.312508 -0.882701 0.322754
		outer loop
			vertex 40.3574 -25.7169 -410.647
			vertex 41.0141 -25.5232 -410.805
			vertex 40.69 -25.2414 -409.842
		endloop
	endfacet 
	facet normal 0.232529 -0.895802 0.35577
		outer loop
			vertex 40.3574 -25.7169 -410.647
			vertex 40.69 -25.2414 -409.842
			vertex 39.804 -25.6768 -410.24
		endloop
	endfacet 
	facet normal 0.230791 -0.850507 0.450939
		outer loop
			vertex 39.804 -25.6768 -410.24
			vertex 40.69 -25.2414 -409.842
			vertex 39.8697 -25.1864 -409.282
		endloop
	endfacet 
	facet normal 0.435534 -0.841345 0.293781
		outer loop
			vertex 41.0141 -25.5232 -410.805
			vertex 41.6453 -25.258 -410.844
			vertex 41.5299 -25.0408 -410.203
		endloop
	endfacet 
	facet normal 0.397812 -0.82414 0.379112
		outer loop
			vertex 40.69 -25.2414 -409.842
			vertex 41.0141 -25.5232 -410.805
			vertex 41.5299 -25.0408 -410.203
		endloop
	endfacet 
	facet normal 0.540904 -0.800332 0.212881
		outer loop
			vertex 41.6453 -25.258 -410.844
			vertex 41.9913 -25.1324 -411.22
			vertex 42.0618 -24.9056 -410.661
		endloop
	endfacet 
	facet normal 0.519801 -0.774219 0.331798
		outer loop
			vertex 41.5299 -25.0408 -410.203
			vertex 41.6453 -25.258 -410.844
			vertex 42.0618 -24.9056 -410.661
		endloop
	endfacet 
	facet normal 0.645257 -0.72341 0.178326
		outer loop
			vertex 41.9913 -25.1324 -411.22
			vertex 42.3398 -24.817 -411.2
			vertex 42.0618 -24.9056 -410.661
		endloop
	endfacet 
	facet normal -0.928844 -0.122121 0.310836
		outer loop
			vertex 37.3291 -24.7024 -410.092
			vertex 37.2547 -23.8916 -409.983
			vertex 37.0198 -24.2311 -410.913
		endloop
	endfacet 
	facet normal -0.948677 -0.185131 0.202865
		outer loop
			vertex 37.0739 -24.8873 -411.172
			vertex 37.3291 -24.7024 -410.092
			vertex 37.0198 -24.2311 -410.913
		endloop
	endfacet 
	facet normal -0.780771 -0.234916 0.546205
		outer loop
			vertex 37.832 -24.7483 -409.268
			vertex 37.7283 -24.1376 -409.206
			vertex 37.3291 -24.7024 -410.092
		endloop
	endfacet 
	facet normal -0.858858 -0.113043 0.474833
		outer loop
			vertex 37.7283 -24.1376 -409.206
			vertex 37.2547 -23.8916 -409.983
			vertex 37.3291 -24.7024 -410.092
		endloop
	endfacet 
	facet normal -0.505241 -0.41397 0.719633
		outer loop
			vertex 38.3623 -24.9686 -409.049
			vertex 38.3484 -24.2931 -408.671
			vertex 37.832 -24.7483 -409.268
		endloop
	endfacet 
	facet normal -0.648003 -0.22612 0.697151
		outer loop
			vertex 38.3484 -24.2931 -408.671
			vertex 37.7283 -24.1376 -409.206
			vertex 37.832 -24.7483 -409.268
		endloop
	endfacet 
	facet normal -0.159449 -0.599027 0.751736
		outer loop
			vertex 39.0869 -25.1074 -409.019
			vertex 39.0784 -24.4224 -408.478
			vertex 38.3623 -24.9686 -409.049
		endloop
	endfacet 
	facet normal -0.316811 -0.421213 0.813905
		outer loop
			vertex 39.0784 -24.4224 -408.478
			vertex 38.3484 -24.2931 -408.671
			vertex 38.3623 -24.9686 -409.049
		endloop
	endfacet 
	facet normal 0.130971 -0.696183 0.679936
		outer loop
			vertex 39.8697 -25.1864 -409.282
			vertex 39.8862 -24.507 -408.586
			vertex 39.0869 -25.1074 -409.019
		endloop
	endfacet 
	facet normal 0.0222605 -0.567347 0.79423
		outer loop
			vertex 39.8862 -24.507 -408.586
			vertex 39.0784 -24.4224 -408.478
			vertex 39.0869 -25.1074 -409.019
		endloop
	endfacet 
	facet normal 0.313843 -0.738295 0.576623
		outer loop
			vertex 40.69 -25.2414 -409.842
			vertex 40.7017 -24.5552 -408.964
			vertex 39.8697 -25.1864 -409.282
		endloop
	endfacet 
	facet normal 0.266848 -0.645192 0.693202
		outer loop
			vertex 40.7017 -24.5552 -408.964
			vertex 39.8862 -24.507 -408.586
			vertex 39.8697 -25.1864 -409.282
		endloop
	endfacet 
	facet normal 0.448923 -0.721977 0.506397
		outer loop
			vertex 41.5299 -25.0408 -410.203
			vertex 41.4677 -24.5317 -409.49
			vertex 40.69 -25.2414 -409.842
		endloop
	endfacet 
	facet normal 0.421597 -0.668235 0.591148
		outer loop
			vertex 41.4677 -24.5317 -409.49
			vertex 40.7017 -24.5552 -408.964
			vertex 40.69 -25.2414 -409.842
		endloop
	endfacet 
	facet normal 0.601156 -0.658069 0.426172
		outer loop
			vertex 42.0618 -24.9056 -410.661
			vertex 42.0872 -24.4664 -410.095
			vertex 41.5299 -25.0408 -410.203
		endloop
	endfacet 
	facet normal 0.568 -0.623031 0.51544
		outer loop
			vertex 42.0872 -24.4664 -410.095
			vertex 41.4677 -24.5317 -409.49
			vertex 41.5299 -25.0408 -410.203
		endloop
	endfacet 
	facet normal 0.808155 -0.550339 0.158372
		outer loop
			vertex 42.3398 -24.817 -411.2
			vertex 42.6393 -24.4279 -411.404
			vertex 42.4785 -24.4395 -410.762
		endloop
	endfacet 
	facet normal 0.739397 -0.602619 0.25561
		outer loop
			vertex 42.3398 -24.817 -411.2
			vertex 42.4785 -24.4395 -410.762
			vertex 42.0618 -24.9056 -410.661
		endloop
	endfacet 
	facet normal 0.716399 -0.563391 0.384538
		outer loop
			vertex 42.0618 -24.9056 -410.661
			vertex 42.4785 -24.4395 -410.762
			vertex 42.0872 -24.4664 -410.095
		endloop
	endfacet 
	facet normal 0.86779 -0.423626 0.192177
		outer loop
			vertex 42.6393 -24.4279 -411.404
			vertex 42.7871 -23.9891 -411.137
			vertex 42.4785 -24.4395 -410.762
		endloop
	endfacet 
	facet normal -0.927154 0.0607679 0.335253
		outer loop
			vertex 37.2547 -23.8916 -409.983
			vertex 37.2577 -23.1536 -410.092
			vertex 37.0037 -23.5177 -410.774
		endloop
	endfacet 
	facet normal -0.961738 -0.0335919 0.236744
		outer loop
			vertex 37.0198 -24.2311 -410.913
			vertex 37.2547 -23.8916 -409.983
			vertex 37.0037 -23.5177 -410.774
		endloop
	endfacet 
	facet normal -0.817012 0.0358628 0.549787
		outer loop
			vertex 37.7283 -24.1376 -409.206
			vertex 37.6963 -23.366 -409.333
			vertex 37.2547 -23.8916 -409.983
		endloop
	endfacet 
	facet normal -0.852414 0.121145 0.484299
		outer loop
			vertex 37.6963 -23.366 -409.333
			vertex 37.2577 -23.1536 -410.092
			vertex 37.2547 -23.8916 -409.983
		endloop
	endfacet 
	facet normal -0.60966 -0.037948 0.759606
		outer loop
			vertex 38.3484 -24.2931 -408.671
			vertex 38.3117 -23.5333 -408.696
			vertex 37.7283 -24.1376 -409.206
		endloop
	endfacet 
	facet normal -0.700582 0.102162 0.683615
		outer loop
			vertex 38.3117 -23.5333 -408.696
			vertex 37.6963 -23.366 -409.333
			vertex 37.7283 -24.1376 -409.206
		endloop
	endfacet 
	facet normal -0.278213 -0.191833 0.906185
		outer loop
			vertex 39.0784 -24.4224 -408.478
			vertex 39.0497 -23.6469 -408.336
			vertex 38.3484 -24.2931 -408.671
		endloop
	endfacet 
	facet normal -0.4283 0.00358151 0.874368
		outer loop
			vertex 39.0497 -23.6469 -408.336
			vertex 38.3117 -23.5333 -408.696
			vertex 38.3484 -24.2931 -408.671
		endloop
	endfacet 
	facet normal 0.0686081 -0.341945 0.904672
		outer loop
			vertex 39.8862 -24.507 -408.586
			vertex 39.869 -23.7219 -408.3
			vertex 39.0784 -24.4224 -408.478
		endloop
	endfacet 
	facet normal -0.0745033 -0.144244 0.954458
		outer loop
			vertex 39.869 -23.7219 -408.3
			vertex 39.0497 -23.6469 -408.336
			vertex 39.0784 -24.4224 -408.478
		endloop
	endfacet 
	facet normal 0.324014 -0.443462 0.807325
		outer loop
			vertex 40.7017 -24.5552 -408.964
			vertex 40.7015 -23.7882 -408.544
			vertex 39.8862 -24.507 -408.586
		endloop
	endfacet 
	facet normal 0.234484 -0.269051 0.904502
		outer loop
			vertex 40.7015 -23.7882 -408.544
			vertex 39.869 -23.7219 -408.3
			vertex 39.8862 -24.507 -408.586
		endloop
	endfacet 
	facet normal 0.501329 -0.494828 0.687835
		outer loop
			vertex 41.4677 -24.5317 -409.49
			vertex 41.4541 -23.8482 -408.994
			vertex 40.7017 -24.5552 -408.964
		endloop
	endfacet 
	facet normal 0.450741 -0.363158 0.787433
		outer loop
			vertex 41.4541 -23.8482 -408.994
			vertex 40.7015 -23.7882 -408.544
			vertex 40.7017 -24.5552 -408.964
		endloop
	endfacet 
	facet normal 0.662562 -0.466669 0.562387
		outer loop
			vertex 42.0872 -24.4664 -410.095
			vertex 42.084 -23.847 -409.632
			vertex 41.4677 -24.5317 -409.49
		endloop
	endfacet 
	facet normal 0.623217 -0.392207 0.650031
		outer loop
			vertex 42.084 -23.847 -409.632
			vertex 41.4541 -23.8482 -408.994
			vertex 41.4677 -24.5317 -409.49
		endloop
	endfacet 
	facet normal 0.797047 -0.410195 0.412127
		outer loop
			vertex 42.4785 -24.4395 -410.762
			vertex 42.5473 -23.8714 -410.401
			vertex 42.0872 -24.4664 -410.095
		endloop
	endfacet 
	facet normal 0.776367 -0.348511 0.500708
		outer loop
			vertex 42.5473 -23.8714 -410.401
			vertex 42.084 -23.847 -409.632
			vertex 42.0872 -24.4664 -410.095
		endloop
	endfacet 
	facet normal 0.932203 -0.177039 0.281088
		outer loop
			vertex 42.7871 -23.9891 -411.137
			vertex 42.8417 -23.3722 -411.058
			vertex 42.5473 -23.8714 -410.401
		endloop
	endfacet 
	facet normal 0.87968 -0.32271 0.317003
		outer loop
			vertex 42.4785 -24.4395 -410.762
			vertex 42.7871 -23.9891 -411.137
			vertex 42.5473 -23.8714 -410.401
		endloop
	endfacet 
	facet normal -0.894037 0.266141 0.331322
		outer loop
			vertex 37.2577 -23.1536 -410.092
			vertex 37.3077 -22.5129 -410.459
			vertex 37.0539 -22.9504 -410.749
		endloop
	endfacet 
	facet normal -0.941424 0.13947 0.268059
		outer loop
			vertex 37.0037 -23.5177 -410.774
			vertex 37.2577 -23.1536 -410.092
			vertex 37.0539 -22.9504 -410.749
		endloop
	endfacet 
	facet normal -0.780815 0.276519 0.537203
		outer loop
			vertex 37.6963 -23.366 -409.333
			vertex 37.7102 -22.612 -409.731
			vertex 37.2577 -23.1536 -410.092
		endloop
	endfacet 
	facet normal -0.808169 0.342813 0.451419
		outer loop
			vertex 37.7102 -22.612 -409.731
			vertex 37.3077 -22.5129 -410.459
			vertex 37.2577 -23.1536 -410.092
		endloop
	endfacet 
	facet normal -0.620433 0.280778 0.70866
		outer loop
			vertex 38.3117 -23.5333 -408.696
			vertex 38.3016 -22.7491 -409.055
			vertex 37.6963 -23.366 -409.333
		endloop
	endfacet 
	facet normal -0.665264 0.369852 0.627736
		outer loop
			vertex 38.3016 -22.7491 -409.055
			vertex 37.7102 -22.612 -409.731
			vertex 37.6963 -23.366 -409.333
		endloop
	endfacet 
	facet normal -0.368258 0.222772 0.874258
		outer loop
			vertex 39.0497 -23.6469 -408.336
			vertex 39.0031 -22.8688 -408.576
			vertex 38.3117 -23.5333 -408.696
		endloop
	endfacet 
	facet normal -0.46947 0.359858 0.784542
		outer loop
			vertex 39.0031 -22.8688 -408.576
			vertex 38.3016 -22.7491 -409.055
			vertex 38.3117 -23.5333 -408.696
		endloop
	endfacet 
	facet normal -0.0254809 0.117718 0.962717
		outer loop
			vertex 39.869 -23.7219 -408.3
			vertex 39.7984 -22.9146 -408.435
			vertex 39.0497 -23.6469 -408.336
		endloop
	endfacet 
	facet normal -0.169149 0.289319 0.914335
		outer loop
			vertex 39.7984 -22.9146 -408.435
			vertex 39.0031 -22.8688 -408.576
			vertex 39.0497 -23.6469 -408.336
		endloop
	endfacet 
	facet normal 0.269251 0.00865072 0.932587
		outer loop
			vertex 40.7015 -23.7882 -408.544
			vertex 40.6581 -22.9577 -408.59
			vertex 39.869 -23.7219 -408.3
		endloop
	endfacet 
	facet normal 0.152398 0.197719 0.941017
		outer loop
			vertex 40.6581 -22.9577 -408.59
			vertex 39.7984 -22.9146 -408.435
			vertex 39.869 -23.7219 -408.3
		endloop
	endfacet 
	facet normal 0.499952 -0.107901 0.830038
		outer loop
			vertex 41.4541 -23.8482 -408.994
			vertex 41.4539 -23.0804 -408.934
			vertex 40.7015 -23.7882 -408.544
		endloop
	endfacet 
	facet normal 0.407993 0.089496 0.878016
		outer loop
			vertex 41.4539 -23.0804 -408.934
			vertex 40.6581 -22.9577 -408.59
			vertex 40.7015 -23.7882 -408.544
		endloop
	endfacet 
	facet normal 0.691937 -0.194837 0.672389
		outer loop
			vertex 42.084 -23.847 -409.632
			vertex 42.0076 -23.2538 -409.367
			vertex 41.4541 -23.8482 -408.994
		endloop
	endfacet 
	facet normal 0.61926 -0.0422015 0.752798
		outer loop
			vertex 42.0076 -23.2538 -409.367
			vertex 41.4539 -23.0804 -408.934
			vertex 41.4541 -23.8482 -408.994
		endloop
	endfacet 
	facet normal 0.842314 -0.175306 0.484431
		outer loop
			vertex 42.5473 -23.8714 -410.401
			vertex 42.5339 -23.0985 -410.193
			vertex 42.084 -23.847 -409.632
		endloop
	endfacet 
	facet normal 0.79723 -0.0960946 0.568468
		outer loop
			vertex 42.5339 -23.0985 -410.193
			vertex 42.0076 -23.2538 -409.367
			vertex 42.084 -23.847 -409.632
		endloop
	endfacet 
	facet normal 0.950925 0.014544 0.274956
		outer loop
			vertex 42.8417 -23.3722 -411.058
			vertex 42.8486 -22.6536 -411.182
			vertex 42.5339 -23.0985 -410.193
		endloop
	endfacet 
	facet normal 0.915518 -0.0913196 0.359935
		outer loop
			vertex 42.5473 -23.8714 -410.401
			vertex 42.8417 -23.3722 -411.058
			vertex 42.5339 -23.0985 -410.193
		endloop
	endfacet 
	facet normal -0.911123 0.320823 0.205856
		outer loop
			vertex 37.0539 -22.9504 -410.749
			vertex 37.3077 -22.5129 -410.459
			vertex 37.134 -22.5096 -411.179
		endloop
	endfacet 
	facet normal -0.879466 0.409675 0.197183
		outer loop
			vertex 37.393 -22.0147 -410.979
			vertex 37.134 -22.5096 -411.179
			vertex 37.3077 -22.5129 -410.459
		endloop
	endfacet 
	facet normal -0.78166 0.489271 0.342267
		outer loop
			vertex 37.393 -22.0147 -410.979
			vertex 37.3077 -22.5129 -410.459
			vertex 37.7425 -21.9253 -410.372
		endloop
	endfacet 
	facet normal -0.72745 0.477091 0.471037
		outer loop
			vertex 37.7425 -21.9253 -410.372
			vertex 37.3077 -22.5129 -410.459
			vertex 37.7102 -22.612 -409.731
		endloop
	endfacet 
	facet normal -0.561358 0.527793 0.617277
		outer loop
			vertex 38.3016 -22.7491 -409.055
			vertex 38.3155 -22.0253 -409.704
			vertex 37.7102 -22.612 -409.731
		endloop
	endfacet 
	facet normal -0.59619 0.568738 0.546361
		outer loop
			vertex 38.3155 -22.0253 -409.704
			vertex 37.7425 -21.9253 -410.372
			vertex 37.7102 -22.612 -409.731
		endloop
	endfacet 
	facet normal -0.379157 0.534682 0.733673
		outer loop
			vertex 39.0031 -22.8688 -408.576
			vertex 39.0128 -22.1279 -409.17
			vertex 38.3016 -22.7491 -409.055
		endloop
	endfacet 
	facet normal -0.426215 0.613542 0.647332
		outer loop
			vertex 39.0128 -22.1279 -409.17
			vertex 38.3155 -22.0253 -409.704
			vertex 38.3016 -22.7491 -409.055
		endloop
	endfacet 
	facet normal -0.116836 0.485643 0.843624
		outer loop
			vertex 39.7984 -22.9146 -408.435
			vertex 39.6461 -22.2798 -408.823
			vertex 39.0031 -22.8688 -408.576
		endloop
	endfacet 
	facet normal -0.225633 0.59392 0.752679
		outer loop
			vertex 39.6461 -22.2798 -408.823
			vertex 39.0128 -22.1279 -409.17
			vertex 39.0031 -22.8688 -408.576
		endloop
	endfacet 
	facet normal 0.171066 0.439435 0.857787
		outer loop
			vertex 40.6581 -22.9577 -408.59
			vertex 40.5146 -22.0841 -409.096
			vertex 39.7984 -22.9146 -408.435
		endloop
	endfacet 
	facet normal 0.0455004 0.555758 0.808776
		outer loop
			vertex 40.5146 -22.0841 -409.096
			vertex 39.6461 -22.2798 -408.823
			vertex 39.7984 -22.9146 -408.435
		endloop
	endfacet 
	facet normal 0.427207 0.331373 0.818528
		outer loop
			vertex 41.4539 -23.0804 -408.934
			vertex 41.4057 -22.272 -409.302
			vertex 40.6581 -22.9577 -408.59
		endloop
	endfacet 
	facet normal 0.307134 0.492244 0.789868
		outer loop
			vertex 41.4057 -22.272 -409.302
			vertex 40.5146 -22.0841 -409.096
			vertex 40.6581 -22.9577 -408.59
		endloop
	endfacet 
	facet normal 0.661065 0.170868 0.706324
		outer loop
			vertex 42.0076 -23.2538 -409.367
			vertex 42.1538 -22.4961 -409.78
			vertex 41.4539 -23.0804 -408.934
		endloop
	endfacet 
	facet normal 0.560971 0.347046 0.724076
		outer loop
			vertex 42.1538 -22.4961 -409.78
			vertex 41.4057 -22.272 -409.302
			vertex 41.4539 -23.0804 -408.934
		endloop
	endfacet 
	facet normal 0.774229 0.37454 0.474977
		outer loop
			vertex 42.6477 -22.3883 -410.558
			vertex 42.4747 -21.955 -410.631
			vertex 42.1538 -22.4961 -409.78
		endloop
	endfacet 
	facet normal 0.82856 0.193063 0.488192
		outer loop
			vertex 42.6477 -22.3883 -410.558
			vertex 42.1538 -22.4961 -409.78
			vertex 42.5339 -23.0985 -410.193
		endloop
	endfacet 
	facet normal 0.779052 0.11621 0.581098
		outer loop
			vertex 42.5339 -23.0985 -410.193
			vertex 42.1538 -22.4961 -409.78
			vertex 42.0076 -23.2538 -409.367
		endloop
	endfacet 
	facet normal 0.9221 0.105211 0.335292
		outer loop
			vertex 42.8486 -22.6536 -411.182
			vertex 42.6477 -22.3883 -410.558
			vertex 42.5339 -23.0985 -410.193
		endloop
	endfacet 
	facet normal -0.615782 0.671466 0.37391
		outer loop
			vertex 37.7425 -21.9253 -410.372
			vertex 37.8996 -21.476 -410.793
			vertex 37.6315 -21.6413 -410.921
		endloop
	endfacet 
	facet normal -0.747032 0.564051 0.306643
		outer loop
			vertex 37.393 -22.0147 -410.979
			vertex 37.7425 -21.9253 -410.372
			vertex 37.6315 -21.6413 -410.921
		endloop
	endfacet 
	facet normal -0.473172 0.698146 0.50965
		outer loop
			vertex 38.3155 -22.0253 -409.704
			vertex 38.322 -21.4704 -410.485
			vertex 37.7425 -21.9253 -410.372
		endloop
	endfacet 
	facet normal -0.479221 0.739185 0.441306
		outer loop
			vertex 38.322 -21.4704 -410.485
			vertex 37.8996 -21.476 -410.793
			vertex 37.7425 -21.9253 -410.372
		endloop
	endfacet 
	facet normal -0.324664 0.738185 0.575168
		outer loop
			vertex 39.0128 -22.1279 -409.17
			vertex 39.0207 -21.4821 -410.063
			vertex 38.3155 -22.0253 -409.704
		endloop
	endfacet 
	facet normal -0.33679 0.781844 0.5084
		outer loop
			vertex 39.0207 -21.4821 -410.063
			vertex 38.322 -21.4704 -410.485
			vertex 38.3155 -22.0253 -409.704
		endloop
	endfacet 
	facet normal -0.148537 0.722304 0.658616
		outer loop
			vertex 39.6461 -22.2798 -408.823
			vertex 39.8741 -21.5719 -409.649
			vertex 39.0128 -22.1279 -409.17
		endloop
	endfacet 
	facet normal -0.200511 0.787709 0.567445
		outer loop
			vertex 39.8741 -21.5719 -409.649
			vertex 39.0207 -21.4821 -410.063
			vertex 39.0128 -22.1279 -409.17
		endloop
	endfacet 
	facet normal 0.0274148 0.859824 0.493583
		outer loop
			vertex 40.6848 -21.3802 -409.935
			vertex 40.4056 -21.0624 -410.509
			vertex 39.8741 -21.5719 -409.649
		endloop
	endfacet 
	facet normal 0.0813832 0.768192 0.612473
		outer loop
			vertex 40.6848 -21.3802 -409.935
			vertex 39.8741 -21.5719 -409.649
			vertex 40.5146 -22.0841 -409.096
		endloop
	endfacet 
	facet normal 0.00880214 0.706365 0.686895
		outer loop
			vertex 40.5146 -22.0841 -409.096
			vertex 39.8741 -21.5719 -409.649
			vertex 39.6461 -22.2798 -408.823
		endloop
	endfacet 
	facet normal 0.219275 0.747724 0.609446
		outer loop
			vertex 41.3078 -21.5535 -409.973
			vertex 40.6848 -21.3802 -409.935
			vertex 40.5146 -22.0841 -409.096
		endloop
	endfacet 
	facet normal 0.318977 0.64692 0.672293
		outer loop
			vertex 41.4057 -22.272 -409.302
			vertex 41.3078 -21.5535 -409.973
			vertex 40.5146 -22.0841 -409.096
		endloop
	endfacet 
	facet normal 0.444077 0.651534 0.593719
		outer loop
			vertex 41.9925 -21.7612 -410.267
			vertex 41.3078 -21.5535 -409.973
			vertex 41.4057 -22.272 -409.302
		endloop
	endfacet 
	facet normal 0.565998 0.51253 0.616842
		outer loop
			vertex 42.1538 -22.4961 -409.78
			vertex 41.9925 -21.7612 -410.267
			vertex 41.4057 -22.272 -409.302
		endloop
	endfacet 
	facet normal 0.662202 0.518007 0.512312
		outer loop
			vertex 42.4747 -21.955 -410.631
			vertex 41.9925 -21.7612 -410.267
			vertex 42.1538 -22.4961 -409.78
		endloop
	endfacet 
	facet normal -0.593006 0.74622 0.236963
		outer loop
			vertex 37.6315 -21.6413 -410.921
			vertex 37.8996 -21.476 -410.793
			vertex 37.8144 -21.407 -411.202
		endloop
	endfacet 
	facet normal -0.459982 0.846981 0.206278
		outer loop
			vertex 38.2163 -21.2326 -411.202
			vertex 37.8144 -21.407 -411.202
			vertex 37.8996 -21.476 -410.793
		endloop
	endfacet 
	facet normal -0.37911 0.85067 0.331779
		outer loop
			vertex 38.322 -21.4704 -410.485
			vertex 38.2163 -21.2326 -411.202
			vertex 37.8996 -21.476 -410.793
		endloop
	endfacet 
	facet normal -0.30533 0.896272 0.290349
		outer loop
			vertex 38.9329 -21.0413 -411.157
			vertex 38.2163 -21.2326 -411.202
			vertex 38.322 -21.4704 -410.485
		endloop
	endfacet 
	facet normal -0.269059 0.868485 0.398627
		outer loop
			vertex 39.0207 -21.4821 -410.063
			vertex 38.9329 -21.0413 -411.157
			vertex 38.322 -21.4704 -410.485
		endloop
	endfacet 
	facet normal -0.19827 0.90265 0.363255
		outer loop
			vertex 39.7336 -21.0261 -410.746
			vertex 38.9329 -21.0413 -411.157
			vertex 39.0207 -21.4821 -410.063
		endloop
	endfacet 
	facet normal -0.141848 0.865533 0.465306
		outer loop
			vertex 39.8741 -21.5719 -409.649
			vertex 39.7336 -21.0261 -410.746
			vertex 39.0207 -21.4821 -410.063
		endloop
	endfacet 
	facet normal -0.0590847 0.892312 0.431265
		outer loop
			vertex 40.4056 -21.0624 -410.509
			vertex 39.7336 -21.0261 -410.746
			vertex 39.8741 -21.5719 -409.649
		endloop
	endfacet 
endsolid lymph_node_2
